<mxfile host="Electron" modified="2024-06-22T04:39:46.763Z" agent="Mozilla/5.0 (Windows NT 10.0; Win64; x64) AppleWebKit/537.36 (KHTML, like Gecko) draw.io/24.5.1 Chrome/124.0.6367.207 Electron/30.0.6 Safari/537.36" etag="aMhHVTllWAU7HSh68ZNG" version="24.5.1" type="device">
  <diagram id="C5RBs43oDa-KdzZeNtuy" name="Page-1">
    <mxGraphModel dx="4795" dy="703" grid="0" gridSize="10" guides="1" tooltips="1" connect="1" arrows="1" fold="1" page="0" pageScale="1" pageWidth="827" pageHeight="1169" math="0" shadow="0">
      <root>
        <mxCell id="WIyWlLk6GJQsqaUBKTNV-0" />
        <mxCell id="WIyWlLk6GJQsqaUBKTNV-1" parent="WIyWlLk6GJQsqaUBKTNV-0" />
        <mxCell id="_vMdqk_4-bU8DDcagTp9-112" value="&lt;p style=&quot;margin:0px;margin-top:4px;text-align:center;&quot;&gt;&lt;i&gt;&amp;lt;&amp;lt;Interface&amp;gt;&amp;gt;&lt;/i&gt;&lt;br&gt;&lt;b&gt;IQuery&lt;/b&gt;&lt;/p&gt;&lt;hr size=&quot;1&quot; style=&quot;border-style:solid;&quot;&gt;&lt;p style=&quot;margin:0px;margin-left:4px;&quot;&gt;&lt;/p&gt;&lt;p style=&quot;margin:0px;margin-left:4px;&quot;&gt;+ relations: string []&lt;/p&gt;&lt;p style=&quot;margin:0px;margin-left:4px;&quot;&gt;+ where: any&lt;/p&gt;&lt;p style=&quot;margin:0px;margin-left:4px;&quot;&gt;+ skip: number&lt;/p&gt;&lt;p style=&quot;margin:0px;margin-left:4px;&quot;&gt;+ take: number&lt;/p&gt;" style="verticalAlign=top;align=left;overflow=fill;html=1;whiteSpace=wrap;" parent="WIyWlLk6GJQsqaUBKTNV-1" vertex="1">
          <mxGeometry x="-1200" y="798" width="190" height="140" as="geometry" />
        </mxCell>
        <mxCell id="_vMdqk_4-bU8DDcagTp9-113" value="&lt;p style=&quot;margin:0px;margin-top:4px;text-align:center;&quot;&gt;&lt;i&gt;&amp;lt;&amp;lt;Interface&amp;gt;&amp;gt;&lt;/i&gt;&lt;br&gt;&lt;b&gt;IDatabaseCRUD&amp;lt;E, C, U&amp;gt;&lt;/b&gt;&lt;/p&gt;&lt;hr size=&quot;1&quot; style=&quot;border-style:solid;&quot;&gt;&lt;p style=&quot;margin:0px;margin-left:4px;&quot;&gt;+ create(C): E&lt;/p&gt;&lt;p style=&quot;margin:0px;margin-left:4px;&quot;&gt;+ find(query: IQuery): any&lt;/p&gt;&lt;p style=&quot;margin:0px;margin-left:4px;&quot;&gt;+ findOne(query: IQuery): E&lt;/p&gt;&lt;p style=&quot;margin:0px;margin-left:4px;&quot;&gt;+ update(U): E&lt;/p&gt;&lt;p style=&quot;margin:0px;margin-left:4px;&quot;&gt;+ replace(C): E&lt;/p&gt;&lt;p style=&quot;margin:0px;margin-left:4px;&quot;&gt;+ delete(): any&lt;/p&gt;" style="verticalAlign=top;align=left;overflow=fill;html=1;whiteSpace=wrap;" parent="WIyWlLk6GJQsqaUBKTNV-1" vertex="1">
          <mxGeometry x="-1200" y="1000" width="190" height="140" as="geometry" />
        </mxCell>
        <mxCell id="_vMdqk_4-bU8DDcagTp9-122" value="" style="endArrow=block;startArrow=block;endFill=1;startFill=1;html=1;rounded=0;" parent="WIyWlLk6GJQsqaUBKTNV-1" source="_vMdqk_4-bU8DDcagTp9-112" target="_vMdqk_4-bU8DDcagTp9-113" edge="1">
          <mxGeometry width="160" relative="1" as="geometry">
            <mxPoint x="-1280" y="960" as="sourcePoint" />
            <mxPoint x="-1120" y="960" as="targetPoint" />
          </mxGeometry>
        </mxCell>
        <mxCell id="9BkR8ySJB5NAiUVgxbIN-61" value=":User" style="shape=folder;fontStyle=1;tabWidth=110;tabHeight=30;tabPosition=left;html=1;boundedLbl=1;labelInHeader=1;container=1;collapsible=0;recursiveResize=0;whiteSpace=wrap;fillColor=#E6E6E6;" parent="WIyWlLk6GJQsqaUBKTNV-1" vertex="1">
          <mxGeometry x="-3520" y="174" width="1902" height="1758" as="geometry" />
        </mxCell>
        <mxCell id="N0rS6jswkV9eB7R3eWDg-0" value="CreateUserDTO" style="swimlane;fontStyle=0;childLayout=stackLayout;horizontal=1;startSize=26;fillColor=none;horizontalStack=0;resizeParent=1;resizeParentMax=0;resizeLast=0;collapsible=1;marginBottom=0;whiteSpace=wrap;html=1;" parent="9BkR8ySJB5NAiUVgxbIN-61" vertex="1">
          <mxGeometry x="614" y="342" width="140" height="104" as="geometry" />
        </mxCell>
        <mxCell id="N0rS6jswkV9eB7R3eWDg-1" value="+ id: string" style="text;strokeColor=none;fillColor=none;align=left;verticalAlign=top;spacingLeft=4;spacingRight=4;overflow=hidden;rotatable=0;points=[[0,0.5],[1,0.5]];portConstraint=eastwest;whiteSpace=wrap;html=1;" parent="N0rS6jswkV9eB7R3eWDg-0" vertex="1">
          <mxGeometry y="26" width="140" height="26" as="geometry" />
        </mxCell>
        <mxCell id="N0rS6jswkV9eB7R3eWDg-2" value="+ email: string" style="text;strokeColor=none;fillColor=none;align=left;verticalAlign=top;spacingLeft=4;spacingRight=4;overflow=hidden;rotatable=0;points=[[0,0.5],[1,0.5]];portConstraint=eastwest;whiteSpace=wrap;html=1;" parent="N0rS6jswkV9eB7R3eWDg-0" vertex="1">
          <mxGeometry y="52" width="140" height="26" as="geometry" />
        </mxCell>
        <mxCell id="N0rS6jswkV9eB7R3eWDg-3" value="+ profileId: string" style="text;strokeColor=none;fillColor=none;align=left;verticalAlign=top;spacingLeft=4;spacingRight=4;overflow=hidden;rotatable=0;points=[[0,0.5],[1,0.5]];portConstraint=eastwest;whiteSpace=wrap;html=1;" parent="N0rS6jswkV9eB7R3eWDg-0" vertex="1">
          <mxGeometry y="78" width="140" height="26" as="geometry" />
        </mxCell>
        <mxCell id="N0rS6jswkV9eB7R3eWDg-4" value="UpdateUserDTO" style="swimlane;fontStyle=0;childLayout=stackLayout;horizontal=1;startSize=26;fillColor=none;horizontalStack=0;resizeParent=1;resizeParentMax=0;resizeLast=0;collapsible=1;marginBottom=0;whiteSpace=wrap;html=1;" parent="9BkR8ySJB5NAiUVgxbIN-61" vertex="1">
          <mxGeometry x="853" y="365" width="140" height="52" as="geometry" />
        </mxCell>
        <mxCell id="9BkR8ySJB5NAiUVgxbIN-0" value="Extends" style="endArrow=block;endSize=16;endFill=0;html=1;rounded=0;" parent="9BkR8ySJB5NAiUVgxbIN-61" source="N0rS6jswkV9eB7R3eWDg-4" target="N0rS6jswkV9eB7R3eWDg-0" edge="1">
          <mxGeometry width="160" relative="1" as="geometry">
            <mxPoint x="770" y="519" as="sourcePoint" />
            <mxPoint x="930" y="519" as="targetPoint" />
          </mxGeometry>
        </mxCell>
        <mxCell id="9BkR8ySJB5NAiUVgxbIN-1" value="User" style="swimlane;fontStyle=1;align=center;verticalAlign=top;childLayout=stackLayout;horizontal=1;startSize=26;horizontalStack=0;resizeParent=1;resizeParentMax=0;resizeLast=0;collapsible=1;marginBottom=0;whiteSpace=wrap;html=1;" parent="9BkR8ySJB5NAiUVgxbIN-61" vertex="1">
          <mxGeometry x="594" y="523" width="201" height="182" as="geometry" />
        </mxCell>
        <mxCell id="9BkR8ySJB5NAiUVgxbIN-2" value="+ id: string" style="text;strokeColor=none;fillColor=none;align=left;verticalAlign=top;spacingLeft=4;spacingRight=4;overflow=hidden;rotatable=0;points=[[0,0.5],[1,0.5]];portConstraint=eastwest;whiteSpace=wrap;html=1;" parent="9BkR8ySJB5NAiUVgxbIN-1" vertex="1">
          <mxGeometry y="26" width="201" height="26" as="geometry" />
        </mxCell>
        <mxCell id="9BkR8ySJB5NAiUVgxbIN-9" value="+ email: string" style="text;strokeColor=none;fillColor=none;align=left;verticalAlign=top;spacingLeft=4;spacingRight=4;overflow=hidden;rotatable=0;points=[[0,0.5],[1,0.5]];portConstraint=eastwest;whiteSpace=wrap;html=1;" parent="9BkR8ySJB5NAiUVgxbIN-1" vertex="1">
          <mxGeometry y="52" width="201" height="26" as="geometry" />
        </mxCell>
        <mxCell id="9BkR8ySJB5NAiUVgxbIN-10" value="+ profile: Profile&amp;nbsp;" style="text;strokeColor=none;fillColor=none;align=left;verticalAlign=top;spacingLeft=4;spacingRight=4;overflow=hidden;rotatable=0;points=[[0,0.5],[1,0.5]];portConstraint=eastwest;whiteSpace=wrap;html=1;" parent="9BkR8ySJB5NAiUVgxbIN-1" vertex="1">
          <mxGeometry y="78" width="201" height="26" as="geometry" />
        </mxCell>
        <mxCell id="9BkR8ySJB5NAiUVgxbIN-11" value="+ merchant: Merchant" style="text;strokeColor=none;fillColor=none;align=left;verticalAlign=top;spacingLeft=4;spacingRight=4;overflow=hidden;rotatable=0;points=[[0,0.5],[1,0.5]];portConstraint=eastwest;whiteSpace=wrap;html=1;" parent="9BkR8ySJB5NAiUVgxbIN-1" vertex="1">
          <mxGeometry y="104" width="201" height="26" as="geometry" />
        </mxCell>
        <mxCell id="9BkR8ySJB5NAiUVgxbIN-12" value="+ likedProduct: Product []" style="text;strokeColor=none;fillColor=none;align=left;verticalAlign=top;spacingLeft=4;spacingRight=4;overflow=hidden;rotatable=0;points=[[0,0.5],[1,0.5]];portConstraint=eastwest;whiteSpace=wrap;html=1;" parent="9BkR8ySJB5NAiUVgxbIN-1" vertex="1">
          <mxGeometry y="130" width="201" height="26" as="geometry" />
        </mxCell>
        <mxCell id="RJX-MwFSKrjnUyUhUoWC-1" value="+ followingMerchants: Merchant []" style="text;strokeColor=none;fillColor=none;align=left;verticalAlign=top;spacingLeft=4;spacingRight=4;overflow=hidden;rotatable=0;points=[[0,0.5],[1,0.5]];portConstraint=eastwest;whiteSpace=wrap;html=1;" vertex="1" parent="9BkR8ySJB5NAiUVgxbIN-1">
          <mxGeometry y="156" width="201" height="26" as="geometry" />
        </mxCell>
        <mxCell id="9BkR8ySJB5NAiUVgxbIN-5" value="UserService" style="swimlane;fontStyle=1;align=center;verticalAlign=top;childLayout=stackLayout;horizontal=1;startSize=26;horizontalStack=0;resizeParent=1;resizeParentMax=0;resizeLast=0;collapsible=1;marginBottom=0;whiteSpace=wrap;html=1;" parent="9BkR8ySJB5NAiUVgxbIN-61" vertex="1">
          <mxGeometry x="578" y="847" width="604" height="320" as="geometry" />
        </mxCell>
        <mxCell id="9BkR8ySJB5NAiUVgxbIN-6" value="+ field: type" style="text;strokeColor=none;fillColor=none;align=left;verticalAlign=top;spacingLeft=4;spacingRight=4;overflow=hidden;rotatable=0;points=[[0,0.5],[1,0.5]];portConstraint=eastwest;whiteSpace=wrap;html=1;" parent="9BkR8ySJB5NAiUVgxbIN-5" vertex="1">
          <mxGeometry y="26" width="604" height="26" as="geometry" />
        </mxCell>
        <mxCell id="9BkR8ySJB5NAiUVgxbIN-7" value="" style="line;strokeWidth=1;fillColor=none;align=left;verticalAlign=middle;spacingTop=-1;spacingLeft=3;spacingRight=3;rotatable=0;labelPosition=right;points=[];portConstraint=eastwest;strokeColor=inherit;" parent="9BkR8ySJB5NAiUVgxbIN-5" vertex="1">
          <mxGeometry y="52" width="604" height="8" as="geometry" />
        </mxCell>
        <mxCell id="9BkR8ySJB5NAiUVgxbIN-8" value="+ create(CreateUserDTO): User" style="text;strokeColor=none;fillColor=none;align=left;verticalAlign=top;spacingLeft=4;spacingRight=4;overflow=hidden;rotatable=0;points=[[0,0.5],[1,0.5]];portConstraint=eastwest;whiteSpace=wrap;html=1;" parent="9BkR8ySJB5NAiUVgxbIN-5" vertex="1">
          <mxGeometry y="60" width="604" height="26" as="geometry" />
        </mxCell>
        <mxCell id="9BkR8ySJB5NAiUVgxbIN-44" value="+ find(query: IQuery): any" style="text;strokeColor=none;fillColor=none;align=left;verticalAlign=top;spacingLeft=4;spacingRight=4;overflow=hidden;rotatable=0;points=[[0,0.5],[1,0.5]];portConstraint=eastwest;whiteSpace=wrap;html=1;" parent="9BkR8ySJB5NAiUVgxbIN-5" vertex="1">
          <mxGeometry y="86" width="604" height="26" as="geometry" />
        </mxCell>
        <mxCell id="9BkR8ySJB5NAiUVgxbIN-45" value="+ findOne(query: IQuery): E" style="text;strokeColor=none;fillColor=none;align=left;verticalAlign=top;spacingLeft=4;spacingRight=4;overflow=hidden;rotatable=0;points=[[0,0.5],[1,0.5]];portConstraint=eastwest;whiteSpace=wrap;html=1;" parent="9BkR8ySJB5NAiUVgxbIN-5" vertex="1">
          <mxGeometry y="112" width="604" height="26" as="geometry" />
        </mxCell>
        <mxCell id="9BkR8ySJB5NAiUVgxbIN-46" value="+ update(UpdateUserDTO): E" style="text;strokeColor=none;fillColor=none;align=left;verticalAlign=top;spacingLeft=4;spacingRight=4;overflow=hidden;rotatable=0;points=[[0,0.5],[1,0.5]];portConstraint=eastwest;whiteSpace=wrap;html=1;" parent="9BkR8ySJB5NAiUVgxbIN-5" vertex="1">
          <mxGeometry y="138" width="604" height="26" as="geometry" />
        </mxCell>
        <mxCell id="9BkR8ySJB5NAiUVgxbIN-47" value="+ replace(CreateUserDTO): User" style="text;strokeColor=none;fillColor=none;align=left;verticalAlign=top;spacingLeft=4;spacingRight=4;overflow=hidden;rotatable=0;points=[[0,0.5],[1,0.5]];portConstraint=eastwest;whiteSpace=wrap;html=1;" parent="9BkR8ySJB5NAiUVgxbIN-5" vertex="1">
          <mxGeometry y="164" width="604" height="26" as="geometry" />
        </mxCell>
        <mxCell id="9BkR8ySJB5NAiUVgxbIN-48" value="+ delete(): any" style="text;strokeColor=none;fillColor=none;align=left;verticalAlign=top;spacingLeft=4;spacingRight=4;overflow=hidden;rotatable=0;points=[[0,0.5],[1,0.5]];portConstraint=eastwest;whiteSpace=wrap;html=1;" parent="9BkR8ySJB5NAiUVgxbIN-5" vertex="1">
          <mxGeometry y="190" width="604" height="26" as="geometry" />
        </mxCell>
        <mxCell id="9BkR8ySJB5NAiUVgxbIN-49" value="+ likeProduct(userId:userId, productId: number): boolean" style="text;strokeColor=none;fillColor=none;align=left;verticalAlign=top;spacingLeft=4;spacingRight=4;overflow=hidden;rotatable=0;points=[[0,0.5],[1,0.5]];portConstraint=eastwest;whiteSpace=wrap;html=1;" parent="9BkR8ySJB5NAiUVgxbIN-5" vertex="1">
          <mxGeometry y="216" width="604" height="26" as="geometry" />
        </mxCell>
        <mxCell id="9BkR8ySJB5NAiUVgxbIN-51" value="+ unlikeProduct(userId:userId, productId: number): boolean" style="text;strokeColor=none;fillColor=none;align=left;verticalAlign=top;spacingLeft=4;spacingRight=4;overflow=hidden;rotatable=0;points=[[0,0.5],[1,0.5]];portConstraint=eastwest;whiteSpace=wrap;html=1;" parent="9BkR8ySJB5NAiUVgxbIN-5" vertex="1">
          <mxGeometry y="242" width="604" height="26" as="geometry" />
        </mxCell>
        <mxCell id="9BkR8ySJB5NAiUVgxbIN-52" value="+ followMerchant(merchantId: string, merchantId: string): boolean" style="text;strokeColor=none;fillColor=none;align=left;verticalAlign=top;spacingLeft=4;spacingRight=4;overflow=hidden;rotatable=0;points=[[0,0.5],[1,0.5]];portConstraint=eastwest;whiteSpace=wrap;html=1;" parent="9BkR8ySJB5NAiUVgxbIN-5" vertex="1">
          <mxGeometry y="268" width="604" height="26" as="geometry" />
        </mxCell>
        <mxCell id="9BkR8ySJB5NAiUVgxbIN-53" value="+ unfollowMerchant(merchantId: string, merchantId: string): boolean" style="text;strokeColor=none;fillColor=none;align=left;verticalAlign=top;spacingLeft=4;spacingRight=4;overflow=hidden;rotatable=0;points=[[0,0.5],[1,0.5]];portConstraint=eastwest;whiteSpace=wrap;html=1;" parent="9BkR8ySJB5NAiUVgxbIN-5" vertex="1">
          <mxGeometry y="294" width="604" height="26" as="geometry" />
        </mxCell>
        <mxCell id="9BkR8ySJB5NAiUVgxbIN-20" value="Profile" style="swimlane;fontStyle=1;align=center;verticalAlign=top;childLayout=stackLayout;horizontal=1;startSize=26;horizontalStack=0;resizeParent=1;resizeParentMax=0;resizeLast=0;collapsible=1;marginBottom=0;whiteSpace=wrap;html=1;" parent="9BkR8ySJB5NAiUVgxbIN-61" vertex="1">
          <mxGeometry x="827" y="549" width="160" height="104" as="geometry" />
        </mxCell>
        <mxCell id="9BkR8ySJB5NAiUVgxbIN-21" value="+ id: string" style="text;strokeColor=none;fillColor=none;align=left;verticalAlign=top;spacingLeft=4;spacingRight=4;overflow=hidden;rotatable=0;points=[[0,0.5],[1,0.5]];portConstraint=eastwest;whiteSpace=wrap;html=1;" parent="9BkR8ySJB5NAiUVgxbIN-20" vertex="1">
          <mxGeometry y="26" width="160" height="26" as="geometry" />
        </mxCell>
        <mxCell id="9BkR8ySJB5NAiUVgxbIN-22" value="+ provider: string" style="text;strokeColor=none;fillColor=none;align=left;verticalAlign=top;spacingLeft=4;spacingRight=4;overflow=hidden;rotatable=0;points=[[0,0.5],[1,0.5]];portConstraint=eastwest;whiteSpace=wrap;html=1;" parent="9BkR8ySJB5NAiUVgxbIN-20" vertex="1">
          <mxGeometry y="52" width="160" height="26" as="geometry" />
        </mxCell>
        <mxCell id="9BkR8ySJB5NAiUVgxbIN-23" value="+ data: TProfile" style="text;strokeColor=none;fillColor=none;align=left;verticalAlign=top;spacingLeft=4;spacingRight=4;overflow=hidden;rotatable=0;points=[[0,0.5],[1,0.5]];portConstraint=eastwest;whiteSpace=wrap;html=1;" parent="9BkR8ySJB5NAiUVgxbIN-20" vertex="1">
          <mxGeometry y="78" width="160" height="26" as="geometry" />
        </mxCell>
        <mxCell id="9BkR8ySJB5NAiUVgxbIN-26" value="" style="endArrow=diamondThin;endFill=0;endSize=24;html=1;rounded=0;" parent="9BkR8ySJB5NAiUVgxbIN-61" source="9BkR8ySJB5NAiUVgxbIN-20" target="9BkR8ySJB5NAiUVgxbIN-1" edge="1">
          <mxGeometry width="160" relative="1" as="geometry">
            <mxPoint x="692" y="723" as="sourcePoint" />
            <mxPoint x="852" y="723" as="targetPoint" />
          </mxGeometry>
        </mxCell>
        <mxCell id="9BkR8ySJB5NAiUVgxbIN-27" value="&lt;p style=&quot;margin:0px;margin-top:4px;text-align:center;&quot;&gt;&lt;i&gt;&amp;lt;&amp;lt;Interface&amp;gt;&amp;gt;&lt;/i&gt;&lt;br&gt;&lt;b&gt;IUserQuery&lt;/b&gt;&lt;/p&gt;&lt;hr size=&quot;1&quot; style=&quot;border-style:solid;&quot;&gt;&lt;p style=&quot;margin:0px;margin-left:4px;&quot;&gt;&lt;br&gt;&lt;/p&gt;" style="verticalAlign=top;align=left;overflow=fill;html=1;whiteSpace=wrap;" parent="9BkR8ySJB5NAiUVgxbIN-61" vertex="1">
          <mxGeometry x="532" y="1236" width="190" height="80" as="geometry" />
        </mxCell>
        <mxCell id="9BkR8ySJB5NAiUVgxbIN-28" value="&lt;p style=&quot;margin:0px;margin-top:4px;text-align:center;&quot;&gt;&lt;i&gt;&amp;lt;&amp;lt;Interface&amp;gt;&amp;gt;&lt;/i&gt;&lt;br&gt;&lt;b&gt;IDatabaseCRUD&lt;/b&gt;&lt;/p&gt;&lt;hr size=&quot;1&quot; style=&quot;border-style:solid;&quot;&gt;&lt;p style=&quot;margin:0px;margin-left:4px;&quot;&gt;&lt;br&gt;&lt;/p&gt;" style="verticalAlign=top;align=left;overflow=fill;html=1;whiteSpace=wrap;" parent="9BkR8ySJB5NAiUVgxbIN-61" vertex="1">
          <mxGeometry x="781" y="1236" width="190" height="80" as="geometry" />
        </mxCell>
        <mxCell id="9BkR8ySJB5NAiUVgxbIN-29" value="&lt;p style=&quot;margin:0px;margin-top:4px;text-align:center;&quot;&gt;&lt;i&gt;&amp;lt;&amp;lt;Interface&amp;gt;&amp;gt;&lt;/i&gt;&lt;br&gt;&lt;b&gt;IUserAction&lt;/b&gt;&lt;/p&gt;&lt;hr size=&quot;1&quot; style=&quot;border-style:solid;&quot;&gt;&lt;p style=&quot;margin:0px;margin-left:4px;&quot;&gt;+ likeProduct(userId:userId, productId: number): boolean&lt;/p&gt;&lt;p style=&quot;margin:0px;margin-left:4px;&quot;&gt;+ unlikeProduct(userId:userId, productId: number): boolean&lt;/p&gt;&lt;p style=&quot;margin:0px;margin-left:4px;&quot;&gt;+ followMerchant(merchantId: string, merchantId: string): boolean&lt;/p&gt;&lt;p style=&quot;margin:0px;margin-left:4px;&quot;&gt;+ unfollowMerchant(merchantId: string, merchantId: string): boolean&amp;nbsp;&lt;/p&gt;" style="verticalAlign=top;align=left;overflow=fill;html=1;whiteSpace=wrap;" parent="9BkR8ySJB5NAiUVgxbIN-61" vertex="1">
          <mxGeometry x="1014" y="1236" width="394" height="113" as="geometry" />
        </mxCell>
        <mxCell id="9BkR8ySJB5NAiUVgxbIN-30" value="" style="endArrow=block;dashed=1;endFill=0;endSize=12;html=1;rounded=0;" parent="9BkR8ySJB5NAiUVgxbIN-61" source="9BkR8ySJB5NAiUVgxbIN-5" target="9BkR8ySJB5NAiUVgxbIN-27" edge="1">
          <mxGeometry width="160" relative="1" as="geometry">
            <mxPoint x="649" y="1159" as="sourcePoint" />
            <mxPoint x="809" y="1159" as="targetPoint" />
          </mxGeometry>
        </mxCell>
        <mxCell id="9BkR8ySJB5NAiUVgxbIN-31" value="" style="endArrow=block;dashed=1;endFill=0;endSize=12;html=1;rounded=0;" parent="9BkR8ySJB5NAiUVgxbIN-61" source="9BkR8ySJB5NAiUVgxbIN-5" target="9BkR8ySJB5NAiUVgxbIN-28" edge="1">
          <mxGeometry width="160" relative="1" as="geometry">
            <mxPoint x="827" y="943" as="sourcePoint" />
            <mxPoint x="704" y="1026" as="targetPoint" />
          </mxGeometry>
        </mxCell>
        <mxCell id="9BkR8ySJB5NAiUVgxbIN-32" value="" style="endArrow=block;dashed=1;endFill=0;endSize=12;html=1;rounded=0;" parent="9BkR8ySJB5NAiUVgxbIN-61" source="9BkR8ySJB5NAiUVgxbIN-5" target="9BkR8ySJB5NAiUVgxbIN-29" edge="1">
          <mxGeometry width="160" relative="1" as="geometry">
            <mxPoint x="891" y="943" as="sourcePoint" />
            <mxPoint x="893" y="1026" as="targetPoint" />
          </mxGeometry>
        </mxCell>
        <mxCell id="9BkR8ySJB5NAiUVgxbIN-100" value=":Product" style="shape=folder;fontStyle=1;tabWidth=110;tabHeight=30;tabPosition=left;html=1;boundedLbl=1;labelInHeader=1;container=1;collapsible=0;recursiveResize=0;whiteSpace=wrap;fillColor=#E6E6E6;strokeColor=default;" parent="WIyWlLk6GJQsqaUBKTNV-1" vertex="1">
          <mxGeometry x="-727" y="394" width="2027" height="1484" as="geometry" />
        </mxCell>
        <mxCell id="_vMdqk_4-bU8DDcagTp9-0" value="ProductCreateDTO" style="swimlane;fontStyle=0;childLayout=stackLayout;horizontal=1;startSize=26;fillColor=none;horizontalStack=0;resizeParent=1;resizeParentMax=0;resizeLast=0;collapsible=1;marginBottom=0;whiteSpace=wrap;html=1;" parent="9BkR8ySJB5NAiUVgxbIN-100" vertex="1">
          <mxGeometry x="584" y="137" width="360" height="312" as="geometry" />
        </mxCell>
        <mxCell id="_vMdqk_4-bU8DDcagTp9-1" value="+ id: number" style="text;strokeColor=none;fillColor=none;align=left;verticalAlign=top;spacingLeft=4;spacingRight=4;overflow=hidden;rotatable=0;points=[[0,0.5],[1,0.5]];portConstraint=eastwest;whiteSpace=wrap;html=1;" parent="_vMdqk_4-bU8DDcagTp9-0" vertex="1">
          <mxGeometry y="26" width="360" height="26" as="geometry" />
        </mxCell>
        <mxCell id="_vMdqk_4-bU8DDcagTp9-2" value="+ name: string" style="text;strokeColor=none;fillColor=none;align=left;verticalAlign=top;spacingLeft=4;spacingRight=4;overflow=hidden;rotatable=0;points=[[0,0.5],[1,0.5]];portConstraint=eastwest;whiteSpace=wrap;html=1;" parent="_vMdqk_4-bU8DDcagTp9-0" vertex="1">
          <mxGeometry y="52" width="360" height="26" as="geometry" />
        </mxCell>
        <mxCell id="_vMdqk_4-bU8DDcagTp9-3" value="+ description: string" style="text;strokeColor=none;fillColor=none;align=left;verticalAlign=top;spacingLeft=4;spacingRight=4;overflow=hidden;rotatable=0;points=[[0,0.5],[1,0.5]];portConstraint=eastwest;whiteSpace=wrap;html=1;" parent="_vMdqk_4-bU8DDcagTp9-0" vertex="1">
          <mxGeometry y="78" width="360" height="26" as="geometry" />
        </mxCell>
        <mxCell id="_vMdqk_4-bU8DDcagTp9-62" value="+ brief: string" style="text;strokeColor=none;fillColor=none;align=left;verticalAlign=top;spacingLeft=4;spacingRight=4;overflow=hidden;rotatable=0;points=[[0,0.5],[1,0.5]];portConstraint=eastwest;whiteSpace=wrap;html=1;" parent="_vMdqk_4-bU8DDcagTp9-0" vertex="1">
          <mxGeometry y="104" width="360" height="26" as="geometry" />
        </mxCell>
        <mxCell id="_vMdqk_4-bU8DDcagTp9-63" value="+ version: string" style="text;strokeColor=none;fillColor=none;align=left;verticalAlign=top;spacingLeft=4;spacingRight=4;overflow=hidden;rotatable=0;points=[[0,0.5],[1,0.5]];portConstraint=eastwest;whiteSpace=wrap;html=1;" parent="_vMdqk_4-bU8DDcagTp9-0" vertex="1">
          <mxGeometry y="130" width="360" height="26" as="geometry" />
        </mxCell>
        <mxCell id="_vMdqk_4-bU8DDcagTp9-64" value="+ dateRelease: Date" style="text;strokeColor=none;fillColor=none;align=left;verticalAlign=top;spacingLeft=4;spacingRight=4;overflow=hidden;rotatable=0;points=[[0,0.5],[1,0.5]];portConstraint=eastwest;whiteSpace=wrap;html=1;" parent="_vMdqk_4-bU8DDcagTp9-0" vertex="1">
          <mxGeometry y="156" width="360" height="26" as="geometry" />
        </mxCell>
        <mxCell id="_vMdqk_4-bU8DDcagTp9-65" value="+ highlightLabel: string" style="text;strokeColor=none;fillColor=none;align=left;verticalAlign=top;spacingLeft=4;spacingRight=4;overflow=hidden;rotatable=0;points=[[0,0.5],[1,0.5]];portConstraint=eastwest;whiteSpace=wrap;html=1;" parent="_vMdqk_4-bU8DDcagTp9-0" vertex="1">
          <mxGeometry y="182" width="360" height="26" as="geometry" />
        </mxCell>
        <mxCell id="_vMdqk_4-bU8DDcagTp9-66" value="+ numberOfLikes: number" style="text;strokeColor=none;fillColor=none;align=left;verticalAlign=top;spacingLeft=4;spacingRight=4;overflow=hidden;rotatable=0;points=[[0,0.5],[1,0.5]];portConstraint=eastwest;whiteSpace=wrap;html=1;" parent="_vMdqk_4-bU8DDcagTp9-0" vertex="1">
          <mxGeometry y="208" width="360" height="26" as="geometry" />
        </mxCell>
        <mxCell id="_vMdqk_4-bU8DDcagTp9-67" value="+ thumbnail: ProductThumbnailCreateDTO&lt;div&gt;&lt;br&gt;&lt;/div&gt;" style="text;strokeColor=none;fillColor=none;align=left;verticalAlign=top;spacingLeft=4;spacingRight=4;overflow=hidden;rotatable=0;points=[[0,0.5],[1,0.5]];portConstraint=eastwest;whiteSpace=wrap;html=1;" parent="_vMdqk_4-bU8DDcagTp9-0" vertex="1">
          <mxGeometry y="234" width="360" height="26" as="geometry" />
        </mxCell>
        <mxCell id="_vMdqk_4-bU8DDcagTp9-68" value="+ mediaFromSpline: ProductMediaFromSplineCreateDTO" style="text;strokeColor=none;fillColor=none;align=left;verticalAlign=top;spacingLeft=4;spacingRight=4;overflow=hidden;rotatable=0;points=[[0,0.5],[1,0.5]];portConstraint=eastwest;whiteSpace=wrap;html=1;" parent="_vMdqk_4-bU8DDcagTp9-0" vertex="1">
          <mxGeometry y="260" width="360" height="26" as="geometry" />
        </mxCell>
        <mxCell id="_vMdqk_4-bU8DDcagTp9-69" value="+ merchant: MerchantCreateDTO" style="text;strokeColor=none;fillColor=none;align=left;verticalAlign=top;spacingLeft=4;spacingRight=4;overflow=hidden;rotatable=0;points=[[0,0.5],[1,0.5]];portConstraint=eastwest;whiteSpace=wrap;html=1;" parent="_vMdqk_4-bU8DDcagTp9-0" vertex="1">
          <mxGeometry y="286" width="360" height="26" as="geometry" />
        </mxCell>
        <mxCell id="_vMdqk_4-bU8DDcagTp9-4" value="ProductUpdateDTO" style="swimlane;fontStyle=0;childLayout=stackLayout;horizontal=1;startSize=26;fillColor=none;horizontalStack=0;resizeParent=1;resizeParentMax=0;resizeLast=0;collapsible=1;marginBottom=0;whiteSpace=wrap;html=1;" parent="9BkR8ySJB5NAiUVgxbIN-100" vertex="1">
          <mxGeometry x="694" y="517" width="140" height="52" as="geometry" />
        </mxCell>
        <mxCell id="_vMdqk_4-bU8DDcagTp9-8" value="Product" style="swimlane;fontStyle=1;align=center;verticalAlign=top;childLayout=stackLayout;horizontal=1;startSize=26;horizontalStack=0;resizeParent=1;resizeParentMax=0;resizeLast=0;collapsible=1;marginBottom=0;whiteSpace=wrap;html=1;fixedWidth=1;" parent="9BkR8ySJB5NAiUVgxbIN-100" vertex="1">
          <mxGeometry x="1484" y="119" width="260" height="398" as="geometry" />
        </mxCell>
        <mxCell id="_vMdqk_4-bU8DDcagTp9-9" value="+ id: string" style="text;strokeColor=none;fillColor=none;align=left;verticalAlign=top;spacingLeft=4;spacingRight=4;overflow=hidden;rotatable=0;points=[[0,0.5],[1,0.5]];portConstraint=eastwest;whiteSpace=wrap;html=1;" parent="_vMdqk_4-bU8DDcagTp9-8" vertex="1">
          <mxGeometry y="26" width="260" height="26" as="geometry" />
        </mxCell>
        <mxCell id="_vMdqk_4-bU8DDcagTp9-39" value="+ name: string&lt;span style=&quot;white-space: pre;&quot;&gt;&#x9;&lt;/span&gt;" style="text;strokeColor=none;fillColor=none;align=left;verticalAlign=top;spacingLeft=4;spacingRight=4;overflow=hidden;rotatable=0;points=[[0,0.5],[1,0.5]];portConstraint=eastwest;whiteSpace=wrap;html=1;" parent="_vMdqk_4-bU8DDcagTp9-8" vertex="1">
          <mxGeometry y="52" width="260" height="26" as="geometry" />
        </mxCell>
        <mxCell id="_vMdqk_4-bU8DDcagTp9-40" value="+ description: string" style="text;strokeColor=none;fillColor=none;align=left;verticalAlign=top;spacingLeft=4;spacingRight=4;overflow=hidden;rotatable=0;points=[[0,0.5],[1,0.5]];portConstraint=eastwest;whiteSpace=wrap;html=1;" parent="_vMdqk_4-bU8DDcagTp9-8" vertex="1">
          <mxGeometry y="78" width="260" height="26" as="geometry" />
        </mxCell>
        <mxCell id="_vMdqk_4-bU8DDcagTp9-52" value="+ brief: string" style="text;strokeColor=none;fillColor=none;align=left;verticalAlign=top;spacingLeft=4;spacingRight=4;overflow=hidden;rotatable=0;points=[[0,0.5],[1,0.5]];portConstraint=eastwest;whiteSpace=wrap;html=1;" parent="_vMdqk_4-bU8DDcagTp9-8" vertex="1">
          <mxGeometry y="104" width="260" height="26" as="geometry" />
        </mxCell>
        <mxCell id="_vMdqk_4-bU8DDcagTp9-41" value="+ version: string" style="text;strokeColor=none;fillColor=none;align=left;verticalAlign=top;spacingLeft=4;spacingRight=4;overflow=hidden;rotatable=0;points=[[0,0.5],[1,0.5]];portConstraint=eastwest;whiteSpace=wrap;html=1;" parent="_vMdqk_4-bU8DDcagTp9-8" vertex="1">
          <mxGeometry y="130" width="260" height="26" as="geometry" />
        </mxCell>
        <mxCell id="_vMdqk_4-bU8DDcagTp9-42" value="+ dateRelease: Date" style="text;strokeColor=none;fillColor=none;align=left;verticalAlign=top;spacingLeft=4;spacingRight=4;overflow=hidden;rotatable=0;points=[[0,0.5],[1,0.5]];portConstraint=eastwest;whiteSpace=wrap;html=1;" parent="_vMdqk_4-bU8DDcagTp9-8" vertex="1">
          <mxGeometry y="156" width="260" height="26" as="geometry" />
        </mxCell>
        <mxCell id="_vMdqk_4-bU8DDcagTp9-43" value="+ highlightLabel: string" style="text;strokeColor=none;fillColor=none;align=left;verticalAlign=top;spacingLeft=4;spacingRight=4;overflow=hidden;rotatable=0;points=[[0,0.5],[1,0.5]];portConstraint=eastwest;whiteSpace=wrap;html=1;" parent="_vMdqk_4-bU8DDcagTp9-8" vertex="1">
          <mxGeometry y="182" width="260" height="26" as="geometry" />
        </mxCell>
        <mxCell id="_vMdqk_4-bU8DDcagTp9-45" value="+ numberOfLikes: number" style="text;strokeColor=none;fillColor=none;align=left;verticalAlign=top;spacingLeft=4;spacingRight=4;overflow=hidden;rotatable=0;points=[[0,0.5],[1,0.5]];portConstraint=eastwest;whiteSpace=wrap;html=1;" parent="_vMdqk_4-bU8DDcagTp9-8" vertex="1">
          <mxGeometry y="208" width="260" height="26" as="geometry" />
        </mxCell>
        <mxCell id="_vMdqk_4-bU8DDcagTp9-46" value="+ thumbnail: ProductThumbnail" style="text;strokeColor=none;fillColor=none;align=left;verticalAlign=top;spacingLeft=4;spacingRight=4;overflow=hidden;rotatable=0;points=[[0,0.5],[1,0.5]];portConstraint=eastwest;whiteSpace=wrap;html=1;" parent="_vMdqk_4-bU8DDcagTp9-8" vertex="1">
          <mxGeometry y="234" width="260" height="26" as="geometry" />
        </mxCell>
        <mxCell id="_vMdqk_4-bU8DDcagTp9-53" value="+ mediaFromSpline: ProductMediaFromSpline" style="text;strokeColor=none;fillColor=none;align=left;verticalAlign=top;spacingLeft=4;spacingRight=4;overflow=hidden;rotatable=0;points=[[0,0.5],[1,0.5]];portConstraint=eastwest;whiteSpace=wrap;html=1;" parent="_vMdqk_4-bU8DDcagTp9-8" vertex="1">
          <mxGeometry y="260" width="260" height="26" as="geometry" />
        </mxCell>
        <mxCell id="_vMdqk_4-bU8DDcagTp9-47" value="+ merchant: Merchant" style="text;strokeColor=none;fillColor=none;align=left;verticalAlign=top;spacingLeft=4;spacingRight=4;overflow=hidden;rotatable=0;points=[[0,0.5],[1,0.5]];portConstraint=eastwest;whiteSpace=wrap;html=1;" parent="_vMdqk_4-bU8DDcagTp9-8" vertex="1">
          <mxGeometry y="286" width="260" height="26" as="geometry" />
        </mxCell>
        <mxCell id="_vMdqk_4-bU8DDcagTp9-48" value="+ features: ProductFeature []" style="text;strokeColor=none;fillColor=none;align=left;verticalAlign=top;spacingLeft=4;spacingRight=4;overflow=hidden;rotatable=0;points=[[0,0.5],[1,0.5]];portConstraint=eastwest;whiteSpace=wrap;html=1;" parent="_vMdqk_4-bU8DDcagTp9-8" vertex="1">
          <mxGeometry y="312" width="260" height="26" as="geometry" />
        </mxCell>
        <mxCell id="_vMdqk_4-bU8DDcagTp9-49" value="+ likedBy: Merchant []" style="text;strokeColor=none;fillColor=none;align=left;verticalAlign=top;spacingLeft=4;spacingRight=4;overflow=hidden;rotatable=0;points=[[0,0.5],[1,0.5]];portConstraint=eastwest;whiteSpace=wrap;html=1;" parent="_vMdqk_4-bU8DDcagTp9-8" vertex="1">
          <mxGeometry y="338" width="260" height="26" as="geometry" />
        </mxCell>
        <mxCell id="_vMdqk_4-bU8DDcagTp9-10" value="" style="line;strokeWidth=1;fillColor=none;align=left;verticalAlign=middle;spacingTop=-1;spacingLeft=3;spacingRight=3;rotatable=0;labelPosition=right;points=[];portConstraint=eastwest;strokeColor=inherit;" parent="_vMdqk_4-bU8DDcagTp9-8" vertex="1">
          <mxGeometry y="364" width="260" height="8" as="geometry" />
        </mxCell>
        <mxCell id="_vMdqk_4-bU8DDcagTp9-11" value="+ method(type): type" style="text;strokeColor=none;fillColor=none;align=left;verticalAlign=top;spacingLeft=4;spacingRight=4;overflow=hidden;rotatable=0;points=[[0,0.5],[1,0.5]];portConstraint=eastwest;whiteSpace=wrap;html=1;" parent="_vMdqk_4-bU8DDcagTp9-8" vertex="1">
          <mxGeometry y="372" width="260" height="26" as="geometry" />
        </mxCell>
        <mxCell id="_vMdqk_4-bU8DDcagTp9-21" value="&lt;p style=&quot;margin:0px;margin-top:4px;text-align:center;&quot;&gt;&lt;i&gt;&amp;lt;&amp;lt;Interface&amp;gt;&amp;gt;&lt;/i&gt;&lt;br&gt;&lt;b&gt;IProductAction&lt;/b&gt;&lt;/p&gt;&lt;hr size=&quot;1&quot; style=&quot;border-style:solid;&quot;&gt;&lt;p style=&quot;margin:0px;margin-left:4px;&quot;&gt;+ like (userId: string): boolean&lt;/p&gt;&lt;p style=&quot;margin:0px;margin-left:4px;&quot;&gt;+ unlike (&lt;span style=&quot;background-color: initial;&quot;&gt;userId:&amp;nbsp;&lt;/span&gt;&lt;span style=&quot;background-color: initial;&quot;&gt;string): boolean&lt;/span&gt;&lt;/p&gt;" style="verticalAlign=top;align=left;overflow=fill;html=1;whiteSpace=wrap;" parent="9BkR8ySJB5NAiUVgxbIN-100" vertex="1">
          <mxGeometry x="1674" y="1300" width="235" height="80" as="geometry" />
        </mxCell>
        <mxCell id="_vMdqk_4-bU8DDcagTp9-22" value="ProductFeature" style="swimlane;fontStyle=1;align=center;verticalAlign=top;childLayout=stackLayout;horizontal=1;startSize=26;horizontalStack=0;resizeParent=1;resizeParentMax=0;resizeLast=0;collapsible=1;marginBottom=0;whiteSpace=wrap;html=1;" parent="9BkR8ySJB5NAiUVgxbIN-100" vertex="1">
          <mxGeometry x="1244" y="97" width="160" height="112" as="geometry" />
        </mxCell>
        <mxCell id="_vMdqk_4-bU8DDcagTp9-23" value="+ id: number" style="text;strokeColor=none;fillColor=none;align=left;verticalAlign=top;spacingLeft=4;spacingRight=4;overflow=hidden;rotatable=0;points=[[0,0.5],[1,0.5]];portConstraint=eastwest;whiteSpace=wrap;html=1;" parent="_vMdqk_4-bU8DDcagTp9-22" vertex="1">
          <mxGeometry y="26" width="160" height="26" as="geometry" />
        </mxCell>
        <mxCell id="_vMdqk_4-bU8DDcagTp9-56" value="+ name: string" style="text;strokeColor=none;fillColor=none;align=left;verticalAlign=top;spacingLeft=4;spacingRight=4;overflow=hidden;rotatable=0;points=[[0,0.5],[1,0.5]];portConstraint=eastwest;whiteSpace=wrap;html=1;" parent="_vMdqk_4-bU8DDcagTp9-22" vertex="1">
          <mxGeometry y="52" width="160" height="26" as="geometry" />
        </mxCell>
        <mxCell id="_vMdqk_4-bU8DDcagTp9-57" value="+ description: string" style="text;strokeColor=none;fillColor=none;align=left;verticalAlign=top;spacingLeft=4;spacingRight=4;overflow=hidden;rotatable=0;points=[[0,0.5],[1,0.5]];portConstraint=eastwest;whiteSpace=wrap;html=1;" parent="_vMdqk_4-bU8DDcagTp9-22" vertex="1">
          <mxGeometry y="78" width="160" height="26" as="geometry" />
        </mxCell>
        <mxCell id="_vMdqk_4-bU8DDcagTp9-24" value="" style="line;strokeWidth=1;fillColor=none;align=left;verticalAlign=middle;spacingTop=-1;spacingLeft=3;spacingRight=3;rotatable=0;labelPosition=right;points=[];portConstraint=eastwest;strokeColor=inherit;" parent="_vMdqk_4-bU8DDcagTp9-22" vertex="1">
          <mxGeometry y="104" width="160" height="8" as="geometry" />
        </mxCell>
        <mxCell id="_vMdqk_4-bU8DDcagTp9-26" value="ProductThumbnail" style="swimlane;fontStyle=1;align=center;verticalAlign=top;childLayout=stackLayout;horizontal=1;startSize=26;horizontalStack=0;resizeParent=1;resizeParentMax=0;resizeLast=0;collapsible=1;marginBottom=0;whiteSpace=wrap;html=1;" parent="9BkR8ySJB5NAiUVgxbIN-100" vertex="1">
          <mxGeometry x="1244" y="281" width="160" height="112" as="geometry" />
        </mxCell>
        <mxCell id="_vMdqk_4-bU8DDcagTp9-27" value="+ id: number" style="text;strokeColor=none;fillColor=none;align=left;verticalAlign=top;spacingLeft=4;spacingRight=4;overflow=hidden;rotatable=0;points=[[0,0.5],[1,0.5]];portConstraint=eastwest;whiteSpace=wrap;html=1;" parent="_vMdqk_4-bU8DDcagTp9-26" vertex="1">
          <mxGeometry y="26" width="160" height="26" as="geometry" />
        </mxCell>
        <mxCell id="_vMdqk_4-bU8DDcagTp9-58" value="+ altTexts: string []" style="text;strokeColor=none;fillColor=none;align=left;verticalAlign=top;spacingLeft=4;spacingRight=4;overflow=hidden;rotatable=0;points=[[0,0.5],[1,0.5]];portConstraint=eastwest;whiteSpace=wrap;html=1;" parent="_vMdqk_4-bU8DDcagTp9-26" vertex="1">
          <mxGeometry y="52" width="160" height="26" as="geometry" />
        </mxCell>
        <mxCell id="_vMdqk_4-bU8DDcagTp9-59" value="+ data: any" style="text;strokeColor=none;fillColor=none;align=left;verticalAlign=top;spacingLeft=4;spacingRight=4;overflow=hidden;rotatable=0;points=[[0,0.5],[1,0.5]];portConstraint=eastwest;whiteSpace=wrap;html=1;" parent="_vMdqk_4-bU8DDcagTp9-26" vertex="1">
          <mxGeometry y="78" width="160" height="26" as="geometry" />
        </mxCell>
        <mxCell id="_vMdqk_4-bU8DDcagTp9-28" value="" style="line;strokeWidth=1;fillColor=none;align=left;verticalAlign=middle;spacingTop=-1;spacingLeft=3;spacingRight=3;rotatable=0;labelPosition=right;points=[];portConstraint=eastwest;strokeColor=inherit;" parent="_vMdqk_4-bU8DDcagTp9-26" vertex="1">
          <mxGeometry y="104" width="160" height="8" as="geometry" />
        </mxCell>
        <mxCell id="_vMdqk_4-bU8DDcagTp9-30" value="ProductMediaFromSpline" style="swimlane;fontStyle=1;align=center;verticalAlign=top;childLayout=stackLayout;horizontal=1;startSize=26;horizontalStack=0;resizeParent=1;resizeParentMax=0;resizeLast=0;collapsible=1;marginBottom=0;whiteSpace=wrap;html=1;" parent="9BkR8ySJB5NAiUVgxbIN-100" vertex="1">
          <mxGeometry x="1244" y="467" width="160" height="86" as="geometry" />
        </mxCell>
        <mxCell id="_vMdqk_4-bU8DDcagTp9-31" value="+ id: number" style="text;strokeColor=none;fillColor=none;align=left;verticalAlign=top;spacingLeft=4;spacingRight=4;overflow=hidden;rotatable=0;points=[[0,0.5],[1,0.5]];portConstraint=eastwest;whiteSpace=wrap;html=1;" parent="_vMdqk_4-bU8DDcagTp9-30" vertex="1">
          <mxGeometry y="26" width="160" height="26" as="geometry" />
        </mxCell>
        <mxCell id="_vMdqk_4-bU8DDcagTp9-60" value="+ data: any" style="text;strokeColor=none;fillColor=none;align=left;verticalAlign=top;spacingLeft=4;spacingRight=4;overflow=hidden;rotatable=0;points=[[0,0.5],[1,0.5]];portConstraint=eastwest;whiteSpace=wrap;html=1;" parent="_vMdqk_4-bU8DDcagTp9-30" vertex="1">
          <mxGeometry y="52" width="160" height="26" as="geometry" />
        </mxCell>
        <mxCell id="_vMdqk_4-bU8DDcagTp9-32" value="" style="line;strokeWidth=1;fillColor=none;align=left;verticalAlign=middle;spacingTop=-1;spacingLeft=3;spacingRight=3;rotatable=0;labelPosition=right;points=[];portConstraint=eastwest;strokeColor=inherit;" parent="_vMdqk_4-bU8DDcagTp9-30" vertex="1">
          <mxGeometry y="78" width="160" height="8" as="geometry" />
        </mxCell>
        <mxCell id="_vMdqk_4-bU8DDcagTp9-34" value="&lt;p style=&quot;margin:0px;margin-top:4px;text-align:center;&quot;&gt;&lt;i&gt;&amp;lt;&amp;lt;Interface&amp;gt;&amp;gt;&lt;/i&gt;&lt;br&gt;&lt;b&gt;IProductQuery&lt;/b&gt;&lt;/p&gt;&lt;hr size=&quot;1&quot; style=&quot;border-style:solid;&quot;&gt;&lt;p style=&quot;margin:0px;margin-left:4px;&quot;&gt;&lt;br&gt;&lt;/p&gt;" style="verticalAlign=top;align=left;overflow=fill;html=1;whiteSpace=wrap;" parent="9BkR8ySJB5NAiUVgxbIN-100" vertex="1">
          <mxGeometry x="1004" y="1300" width="190" height="80" as="geometry" />
        </mxCell>
        <mxCell id="_vMdqk_4-bU8DDcagTp9-35" value="ProductService" style="swimlane;fontStyle=1;align=center;verticalAlign=top;childLayout=stackLayout;horizontal=1;startSize=26;horizontalStack=0;resizeParent=1;resizeParentMax=0;resizeLast=0;collapsible=1;marginBottom=0;whiteSpace=wrap;html=1;" parent="9BkR8ySJB5NAiUVgxbIN-100" vertex="1">
          <mxGeometry x="1074" y="625" width="670" height="216" as="geometry" />
        </mxCell>
        <mxCell id="_vMdqk_4-bU8DDcagTp9-36" value="+ field: type" style="text;strokeColor=none;fillColor=none;align=left;verticalAlign=top;spacingLeft=4;spacingRight=4;overflow=hidden;rotatable=0;points=[[0,0.5],[1,0.5]];portConstraint=eastwest;whiteSpace=wrap;html=1;" parent="_vMdqk_4-bU8DDcagTp9-35" vertex="1">
          <mxGeometry y="26" width="670" height="26" as="geometry" />
        </mxCell>
        <mxCell id="_vMdqk_4-bU8DDcagTp9-37" value="" style="line;strokeWidth=1;fillColor=none;align=left;verticalAlign=middle;spacingTop=-1;spacingLeft=3;spacingRight=3;rotatable=0;labelPosition=right;points=[];portConstraint=eastwest;strokeColor=inherit;" parent="_vMdqk_4-bU8DDcagTp9-35" vertex="1">
          <mxGeometry y="52" width="670" height="8" as="geometry" />
        </mxCell>
        <mxCell id="_vMdqk_4-bU8DDcagTp9-38" value="+ like (userId: string): boolean" style="text;strokeColor=none;fillColor=none;align=left;verticalAlign=top;spacingLeft=4;spacingRight=4;overflow=hidden;rotatable=0;points=[[0,0.5],[1,0.5]];portConstraint=eastwest;whiteSpace=wrap;html=1;" parent="_vMdqk_4-bU8DDcagTp9-35" vertex="1">
          <mxGeometry y="60" width="670" height="26" as="geometry" />
        </mxCell>
        <mxCell id="_i06N1YKPj8mgzD0oMHE-0" value="+ unlike (userId: string): boolean" style="text;strokeColor=none;fillColor=none;align=left;verticalAlign=top;spacingLeft=4;spacingRight=4;overflow=hidden;rotatable=0;points=[[0,0.5],[1,0.5]];portConstraint=eastwest;whiteSpace=wrap;html=1;" parent="_vMdqk_4-bU8DDcagTp9-35" vertex="1">
          <mxGeometry y="86" width="670" height="26" as="geometry" />
        </mxCell>
        <mxCell id="_i06N1YKPj8mgzD0oMHE-1" value="+ create (product: CreateProductDTO): Product" style="text;strokeColor=none;fillColor=none;align=left;verticalAlign=top;spacingLeft=4;spacingRight=4;overflow=hidden;rotatable=0;points=[[0,0.5],[1,0.5]];portConstraint=eastwest;whiteSpace=wrap;html=1;" parent="_vMdqk_4-bU8DDcagTp9-35" vertex="1">
          <mxGeometry y="112" width="670" height="26" as="geometry" />
        </mxCell>
        <mxCell id="_i06N1YKPj8mgzD0oMHE-2" value="+ find (query: IProductQuery): Product []" style="text;strokeColor=none;fillColor=none;align=left;verticalAlign=top;spacingLeft=4;spacingRight=4;overflow=hidden;rotatable=0;points=[[0,0.5],[1,0.5]];portConstraint=eastwest;whiteSpace=wrap;html=1;" parent="_vMdqk_4-bU8DDcagTp9-35" vertex="1">
          <mxGeometry y="138" width="670" height="26" as="geometry" />
        </mxCell>
        <mxCell id="_i06N1YKPj8mgzD0oMHE-3" value="+ update(product: UpdateProductDTO): Product" style="text;strokeColor=none;fillColor=none;align=left;verticalAlign=top;spacingLeft=4;spacingRight=4;overflow=hidden;rotatable=0;points=[[0,0.5],[1,0.5]];portConstraint=eastwest;whiteSpace=wrap;html=1;" parent="_vMdqk_4-bU8DDcagTp9-35" vertex="1">
          <mxGeometry y="164" width="670" height="26" as="geometry" />
        </mxCell>
        <mxCell id="_i06N1YKPj8mgzD0oMHE-4" value="+ delete(): any" style="text;strokeColor=none;fillColor=none;align=left;verticalAlign=top;spacingLeft=4;spacingRight=4;overflow=hidden;rotatable=0;points=[[0,0.5],[1,0.5]];portConstraint=eastwest;whiteSpace=wrap;html=1;" parent="_vMdqk_4-bU8DDcagTp9-35" vertex="1">
          <mxGeometry y="190" width="670" height="26" as="geometry" />
        </mxCell>
        <mxCell id="_vMdqk_4-bU8DDcagTp9-86" value="ProductThumbnailDTO" style="swimlane;fontStyle=1;align=center;verticalAlign=top;childLayout=stackLayout;horizontal=1;startSize=26;horizontalStack=0;resizeParent=1;resizeParentMax=0;resizeLast=0;collapsible=1;marginBottom=0;whiteSpace=wrap;html=1;" parent="9BkR8ySJB5NAiUVgxbIN-100" vertex="1">
          <mxGeometry x="304" y="293" width="160" height="104" as="geometry" />
        </mxCell>
        <mxCell id="_vMdqk_4-bU8DDcagTp9-87" value="+ id: number" style="text;strokeColor=none;fillColor=none;align=left;verticalAlign=top;spacingLeft=4;spacingRight=4;overflow=hidden;rotatable=0;points=[[0,0.5],[1,0.5]];portConstraint=eastwest;whiteSpace=wrap;html=1;" parent="_vMdqk_4-bU8DDcagTp9-86" vertex="1">
          <mxGeometry y="26" width="160" height="26" as="geometry" />
        </mxCell>
        <mxCell id="_vMdqk_4-bU8DDcagTp9-88" value="+ altTexts: string []" style="text;strokeColor=none;fillColor=none;align=left;verticalAlign=top;spacingLeft=4;spacingRight=4;overflow=hidden;rotatable=0;points=[[0,0.5],[1,0.5]];portConstraint=eastwest;whiteSpace=wrap;html=1;" parent="_vMdqk_4-bU8DDcagTp9-86" vertex="1">
          <mxGeometry y="52" width="160" height="26" as="geometry" />
        </mxCell>
        <mxCell id="_vMdqk_4-bU8DDcagTp9-89" value="+ data: any" style="text;strokeColor=none;fillColor=none;align=left;verticalAlign=top;spacingLeft=4;spacingRight=4;overflow=hidden;rotatable=0;points=[[0,0.5],[1,0.5]];portConstraint=eastwest;whiteSpace=wrap;html=1;" parent="_vMdqk_4-bU8DDcagTp9-86" vertex="1">
          <mxGeometry y="78" width="160" height="26" as="geometry" />
        </mxCell>
        <mxCell id="_vMdqk_4-bU8DDcagTp9-91" value="ProductMediaFromSplineDTO" style="swimlane;fontStyle=1;align=center;verticalAlign=top;childLayout=stackLayout;horizontal=1;startSize=26;horizontalStack=0;resizeParent=1;resizeParentMax=0;resizeLast=0;collapsible=1;marginBottom=0;whiteSpace=wrap;html=1;" parent="9BkR8ySJB5NAiUVgxbIN-100" vertex="1">
          <mxGeometry x="364" y="517" width="190" height="78" as="geometry" />
        </mxCell>
        <mxCell id="_vMdqk_4-bU8DDcagTp9-93" value="+ data: any" style="text;strokeColor=none;fillColor=none;align=left;verticalAlign=top;spacingLeft=4;spacingRight=4;overflow=hidden;rotatable=0;points=[[0,0.5],[1,0.5]];portConstraint=eastwest;whiteSpace=wrap;html=1;" parent="_vMdqk_4-bU8DDcagTp9-91" vertex="1">
          <mxGeometry y="26" width="190" height="26" as="geometry" />
        </mxCell>
        <mxCell id="_vMdqk_4-bU8DDcagTp9-92" value="+ id: number" style="text;strokeColor=none;fillColor=none;align=left;verticalAlign=top;spacingLeft=4;spacingRight=4;overflow=hidden;rotatable=0;points=[[0,0.5],[1,0.5]];portConstraint=eastwest;whiteSpace=wrap;html=1;" parent="_vMdqk_4-bU8DDcagTp9-91" vertex="1">
          <mxGeometry y="52" width="190" height="26" as="geometry" />
        </mxCell>
        <mxCell id="_vMdqk_4-bU8DDcagTp9-96" value="Extends" style="endArrow=block;endSize=16;endFill=0;html=1;rounded=0;" parent="9BkR8ySJB5NAiUVgxbIN-100" source="_vMdqk_4-bU8DDcagTp9-4" target="_vMdqk_4-bU8DDcagTp9-0" edge="1">
          <mxGeometry width="160" relative="1" as="geometry">
            <mxPoint x="1004" y="237" as="sourcePoint" />
            <mxPoint x="1164" y="237" as="targetPoint" />
          </mxGeometry>
        </mxCell>
        <mxCell id="_vMdqk_4-bU8DDcagTp9-102" value="" style="endArrow=block;dashed=1;endFill=0;endSize=12;html=1;rounded=0;" parent="9BkR8ySJB5NAiUVgxbIN-100" source="_vMdqk_4-bU8DDcagTp9-35" target="_vMdqk_4-bU8DDcagTp9-34" edge="1">
          <mxGeometry width="160" relative="1" as="geometry">
            <mxPoint x="1284" y="857" as="sourcePoint" />
            <mxPoint x="1444" y="857" as="targetPoint" />
          </mxGeometry>
        </mxCell>
        <mxCell id="_vMdqk_4-bU8DDcagTp9-103" value="" style="endArrow=block;dashed=1;endFill=0;endSize=12;html=1;rounded=0;" parent="9BkR8ySJB5NAiUVgxbIN-100" source="_vMdqk_4-bU8DDcagTp9-35" target="_vMdqk_4-bU8DDcagTp9-21" edge="1">
          <mxGeometry width="160" relative="1" as="geometry">
            <mxPoint x="1355" y="763" as="sourcePoint" />
            <mxPoint x="1204" y="851" as="targetPoint" />
          </mxGeometry>
        </mxCell>
        <mxCell id="_vMdqk_4-bU8DDcagTp9-104" value="" style="endArrow=diamondThin;endFill=0;endSize=24;html=1;rounded=0;" parent="9BkR8ySJB5NAiUVgxbIN-100" source="_vMdqk_4-bU8DDcagTp9-8" target="_vMdqk_4-bU8DDcagTp9-35" edge="1">
          <mxGeometry width="160" relative="1" as="geometry">
            <mxPoint x="1674" y="547" as="sourcePoint" />
            <mxPoint x="1834" y="547" as="targetPoint" />
          </mxGeometry>
        </mxCell>
        <mxCell id="_vMdqk_4-bU8DDcagTp9-107" value="" style="endArrow=diamondThin;endFill=0;endSize=24;html=1;rounded=0;" parent="9BkR8ySJB5NAiUVgxbIN-100" source="_vMdqk_4-bU8DDcagTp9-0" target="_vMdqk_4-bU8DDcagTp9-35" edge="1">
          <mxGeometry width="160" relative="1" as="geometry">
            <mxPoint x="1528" y="515" as="sourcePoint" />
            <mxPoint x="1450" y="677" as="targetPoint" />
          </mxGeometry>
        </mxCell>
        <mxCell id="_vMdqk_4-bU8DDcagTp9-108" value="" style="endArrow=diamondThin;endFill=0;endSize=24;html=1;rounded=0;" parent="9BkR8ySJB5NAiUVgxbIN-100" source="_vMdqk_4-bU8DDcagTp9-30" target="_vMdqk_4-bU8DDcagTp9-8" edge="1">
          <mxGeometry width="160" relative="1" as="geometry">
            <mxPoint x="1528" y="515" as="sourcePoint" />
            <mxPoint x="1450" y="677" as="targetPoint" />
          </mxGeometry>
        </mxCell>
        <mxCell id="_vMdqk_4-bU8DDcagTp9-109" value="" style="endArrow=diamondThin;endFill=0;endSize=24;html=1;rounded=0;" parent="9BkR8ySJB5NAiUVgxbIN-100" source="_vMdqk_4-bU8DDcagTp9-26" target="_vMdqk_4-bU8DDcagTp9-8" edge="1">
          <mxGeometry width="160" relative="1" as="geometry">
            <mxPoint x="1395" y="477" as="sourcePoint" />
            <mxPoint x="1494" y="407" as="targetPoint" />
          </mxGeometry>
        </mxCell>
        <mxCell id="_vMdqk_4-bU8DDcagTp9-110" value="" style="endArrow=diamondThin;endFill=0;endSize=24;html=1;rounded=0;" parent="9BkR8ySJB5NAiUVgxbIN-100" source="_vMdqk_4-bU8DDcagTp9-22" target="_vMdqk_4-bU8DDcagTp9-8" edge="1">
          <mxGeometry width="160" relative="1" as="geometry">
            <mxPoint x="1434" y="157" as="sourcePoint" />
            <mxPoint x="1504" y="417" as="targetPoint" />
          </mxGeometry>
        </mxCell>
        <mxCell id="_vMdqk_4-bU8DDcagTp9-111" value="&lt;p style=&quot;margin:0px;margin-top:4px;text-align:center;&quot;&gt;&lt;i&gt;&amp;lt;&amp;lt;Interface&amp;gt;&amp;gt;&lt;/i&gt;&lt;br&gt;&lt;b&gt;IProductDatabaseCRUD&lt;/b&gt;&lt;/p&gt;&lt;hr size=&quot;1&quot; style=&quot;border-style:solid;&quot;&gt;&lt;p style=&quot;margin:0px;margin-left:4px;&quot;&gt;&lt;br&gt;&lt;/p&gt;" style="verticalAlign=top;align=left;overflow=fill;html=1;whiteSpace=wrap;" parent="9BkR8ySJB5NAiUVgxbIN-100" vertex="1">
          <mxGeometry x="1324" y="1300" width="190" height="80" as="geometry" />
        </mxCell>
        <mxCell id="_vMdqk_4-bU8DDcagTp9-116" value="" style="endArrow=block;dashed=1;endFill=0;endSize=12;html=1;rounded=0;" parent="9BkR8ySJB5NAiUVgxbIN-100" source="_vMdqk_4-bU8DDcagTp9-35" target="_vMdqk_4-bU8DDcagTp9-111" edge="1">
          <mxGeometry width="160" relative="1" as="geometry">
            <mxPoint x="1525" y="763" as="sourcePoint" />
            <mxPoint x="1690" y="837" as="targetPoint" />
          </mxGeometry>
        </mxCell>
        <mxCell id="_vMdqk_4-bU8DDcagTp9-118" value="" style="endArrow=diamondThin;endFill=0;endSize=24;html=1;rounded=0;" parent="9BkR8ySJB5NAiUVgxbIN-100" source="_vMdqk_4-bU8DDcagTp9-86" target="_vMdqk_4-bU8DDcagTp9-0" edge="1">
          <mxGeometry width="160" relative="1" as="geometry">
            <mxPoint x="1405" y="487" as="sourcePoint" />
            <mxPoint x="484" y="157" as="targetPoint" />
          </mxGeometry>
        </mxCell>
        <mxCell id="_vMdqk_4-bU8DDcagTp9-119" value="" style="endArrow=diamondThin;endFill=0;endSize=24;html=1;rounded=0;" parent="9BkR8ySJB5NAiUVgxbIN-100" source="_vMdqk_4-bU8DDcagTp9-91" target="_vMdqk_4-bU8DDcagTp9-0" edge="1">
          <mxGeometry width="160" relative="1" as="geometry">
            <mxPoint x="474" y="344" as="sourcePoint" />
            <mxPoint x="594" y="328" as="targetPoint" />
          </mxGeometry>
        </mxCell>
        <mxCell id="9BkR8ySJB5NAiUVgxbIN-35" value="Extends" style="endArrow=block;endSize=16;endFill=0;html=1;rounded=0;edgeStyle=orthogonalEdgeStyle;elbow=vertical;" parent="WIyWlLk6GJQsqaUBKTNV-1" source="9BkR8ySJB5NAiUVgxbIN-28" target="_vMdqk_4-bU8DDcagTp9-113" edge="1">
          <mxGeometry width="160" relative="1" as="geometry">
            <mxPoint x="-2192" y="1221" as="sourcePoint" />
            <mxPoint x="-1190" y="878" as="targetPoint" />
            <Array as="points">
              <mxPoint x="-2649" y="1822" />
              <mxPoint x="-1385" y="1822" />
              <mxPoint x="-1385" y="1070" />
            </Array>
          </mxGeometry>
        </mxCell>
        <mxCell id="9BkR8ySJB5NAiUVgxbIN-102" value="Extends" style="endArrow=block;endSize=16;endFill=0;html=1;rounded=0;edgeStyle=orthogonalEdgeStyle;elbow=vertical;" parent="WIyWlLk6GJQsqaUBKTNV-1" source="9BkR8ySJB5NAiUVgxbIN-27" target="_vMdqk_4-bU8DDcagTp9-112" edge="1">
          <mxGeometry width="160" relative="1" as="geometry">
            <mxPoint x="-1837" y="1998" as="sourcePoint" />
            <mxPoint x="-1230" y="651" as="targetPoint" />
            <Array as="points">
              <mxPoint x="-2893" y="1851" />
              <mxPoint x="-1326" y="1851" />
              <mxPoint x="-1326" y="868" />
            </Array>
          </mxGeometry>
        </mxCell>
        <mxCell id="9BkR8ySJB5NAiUVgxbIN-103" value="Extends" style="endArrow=block;endSize=16;endFill=0;html=1;rounded=0;edgeStyle=orthogonalEdgeStyle;elbow=vertical;" parent="WIyWlLk6GJQsqaUBKTNV-1" source="_vMdqk_4-bU8DDcagTp9-34" target="_vMdqk_4-bU8DDcagTp9-112" edge="1">
          <mxGeometry width="160" relative="1" as="geometry">
            <mxPoint x="372" y="1694" as="sourcePoint" />
            <mxPoint x="-1010" y="868" as="targetPoint" />
            <Array as="points">
              <mxPoint x="372" y="1644" />
              <mxPoint x="-879" y="1644" />
              <mxPoint x="-879" y="868" />
            </Array>
          </mxGeometry>
        </mxCell>
        <mxCell id="9BkR8ySJB5NAiUVgxbIN-104" value="Extends" style="endArrow=block;endSize=16;endFill=0;html=1;rounded=0;edgeStyle=orthogonalEdgeStyle;" parent="WIyWlLk6GJQsqaUBKTNV-1" source="_vMdqk_4-bU8DDcagTp9-111" target="_vMdqk_4-bU8DDcagTp9-113" edge="1">
          <mxGeometry width="160" relative="1" as="geometry">
            <mxPoint x="597" y="1742" as="sourcePoint" />
            <mxPoint x="-1105" y="1140" as="targetPoint" />
            <Array as="points">
              <mxPoint x="692" y="1832" />
              <mxPoint x="-938" y="1832" />
              <mxPoint x="-938" y="1070" />
            </Array>
          </mxGeometry>
        </mxCell>
        <mxCell id="9BkR8ySJB5NAiUVgxbIN-105" value=":Merchant" style="shape=folder;fontStyle=1;tabWidth=110;tabHeight=30;tabPosition=left;html=1;boundedLbl=1;labelInHeader=1;container=1;collapsible=0;recursiveResize=0;whiteSpace=wrap;fillColor=#E6E6E6;" parent="WIyWlLk6GJQsqaUBKTNV-1" vertex="1">
          <mxGeometry x="-2091" y="2409" width="1902" height="1758" as="geometry" />
        </mxCell>
        <mxCell id="9BkR8ySJB5NAiUVgxbIN-106" value="CreateMerchantDTO" style="swimlane;fontStyle=0;childLayout=stackLayout;horizontal=1;startSize=26;fillColor=none;horizontalStack=0;resizeParent=1;resizeParentMax=0;resizeLast=0;collapsible=1;marginBottom=0;whiteSpace=wrap;html=1;" parent="9BkR8ySJB5NAiUVgxbIN-105" vertex="1">
          <mxGeometry x="594" y="72" width="312" height="286" as="geometry" />
        </mxCell>
        <mxCell id="9BkR8ySJB5NAiUVgxbIN-107" value="+ id: string" style="text;strokeColor=none;fillColor=none;align=left;verticalAlign=top;spacingLeft=4;spacingRight=4;overflow=hidden;rotatable=0;points=[[0,0.5],[1,0.5]];portConstraint=eastwest;whiteSpace=wrap;html=1;" parent="9BkR8ySJB5NAiUVgxbIN-106" vertex="1">
          <mxGeometry y="26" width="312" height="26" as="geometry" />
        </mxCell>
        <mxCell id="9BkR8ySJB5NAiUVgxbIN-108" value="+ name: string" style="text;strokeColor=none;fillColor=none;align=left;verticalAlign=top;spacingLeft=4;spacingRight=4;overflow=hidden;rotatable=0;points=[[0,0.5],[1,0.5]];portConstraint=eastwest;whiteSpace=wrap;html=1;" parent="9BkR8ySJB5NAiUVgxbIN-106" vertex="1">
          <mxGeometry y="52" width="312" height="26" as="geometry" />
        </mxCell>
        <mxCell id="9BkR8ySJB5NAiUVgxbIN-109" value="+ email: string" style="text;strokeColor=none;fillColor=none;align=left;verticalAlign=top;spacingLeft=4;spacingRight=4;overflow=hidden;rotatable=0;points=[[0,0.5],[1,0.5]];portConstraint=eastwest;whiteSpace=wrap;html=1;" parent="9BkR8ySJB5NAiUVgxbIN-106" vertex="1">
          <mxGeometry y="78" width="312" height="26" as="geometry" />
        </mxCell>
        <mxCell id="9BkR8ySJB5NAiUVgxbIN-143" value="+ slogan: string" style="text;strokeColor=none;fillColor=none;align=left;verticalAlign=top;spacingLeft=4;spacingRight=4;overflow=hidden;rotatable=0;points=[[0,0.5],[1,0.5]];portConstraint=eastwest;whiteSpace=wrap;html=1;" parent="9BkR8ySJB5NAiUVgxbIN-106" vertex="1">
          <mxGeometry y="104" width="312" height="26" as="geometry" />
        </mxCell>
        <mxCell id="9BkR8ySJB5NAiUVgxbIN-144" value="+ phone: string" style="text;strokeColor=none;fillColor=none;align=left;verticalAlign=top;spacingLeft=4;spacingRight=4;overflow=hidden;rotatable=0;points=[[0,0.5],[1,0.5]];portConstraint=eastwest;whiteSpace=wrap;html=1;" parent="9BkR8ySJB5NAiUVgxbIN-106" vertex="1">
          <mxGeometry y="130" width="312" height="26" as="geometry" />
        </mxCell>
        <mxCell id="9BkR8ySJB5NAiUVgxbIN-145" value="+ socialLinks: CreateSocialLinkDTO []" style="text;strokeColor=none;fillColor=none;align=left;verticalAlign=top;spacingLeft=4;spacingRight=4;overflow=hidden;rotatable=0;points=[[0,0.5],[1,0.5]];portConstraint=eastwest;whiteSpace=wrap;html=1;" parent="9BkR8ySJB5NAiUVgxbIN-106" vertex="1">
          <mxGeometry y="156" width="312" height="26" as="geometry" />
        </mxCell>
        <mxCell id="9BkR8ySJB5NAiUVgxbIN-146" value="+ numberOfLikes: number" style="text;strokeColor=none;fillColor=none;align=left;verticalAlign=top;spacingLeft=4;spacingRight=4;overflow=hidden;rotatable=0;points=[[0,0.5],[1,0.5]];portConstraint=eastwest;whiteSpace=wrap;html=1;" parent="9BkR8ySJB5NAiUVgxbIN-106" vertex="1">
          <mxGeometry y="182" width="312" height="26" as="geometry" />
        </mxCell>
        <mxCell id="9BkR8ySJB5NAiUVgxbIN-147" value="+ numberOfProducts: number" style="text;strokeColor=none;fillColor=none;align=left;verticalAlign=top;spacingLeft=4;spacingRight=4;overflow=hidden;rotatable=0;points=[[0,0.5],[1,0.5]];portConstraint=eastwest;whiteSpace=wrap;html=1;" parent="9BkR8ySJB5NAiUVgxbIN-106" vertex="1">
          <mxGeometry y="208" width="312" height="26" as="geometry" />
        </mxCell>
        <mxCell id="9BkR8ySJB5NAiUVgxbIN-148" value="+ avatar: CreateAvatarDTO" style="text;strokeColor=none;fillColor=none;align=left;verticalAlign=top;spacingLeft=4;spacingRight=4;overflow=hidden;rotatable=0;points=[[0,0.5],[1,0.5]];portConstraint=eastwest;whiteSpace=wrap;html=1;" parent="9BkR8ySJB5NAiUVgxbIN-106" vertex="1">
          <mxGeometry y="234" width="312" height="26" as="geometry" />
        </mxCell>
        <mxCell id="rHEqyXFxwkV-T4YenSiY-120" value="+ ownTemplateTypes: CreateTemplateTypeDTO []" style="text;strokeColor=none;fillColor=none;align=left;verticalAlign=top;spacingLeft=4;spacingRight=4;overflow=hidden;rotatable=0;points=[[0,0.5],[1,0.5]];portConstraint=eastwest;whiteSpace=wrap;html=1;" parent="9BkR8ySJB5NAiUVgxbIN-106" vertex="1">
          <mxGeometry y="260" width="312" height="26" as="geometry" />
        </mxCell>
        <mxCell id="9BkR8ySJB5NAiUVgxbIN-110" value="UpdateMerchantDTO" style="swimlane;fontStyle=0;childLayout=stackLayout;horizontal=1;startSize=26;fillColor=none;horizontalStack=0;resizeParent=1;resizeParentMax=0;resizeLast=0;collapsible=1;marginBottom=0;whiteSpace=wrap;html=1;" parent="9BkR8ySJB5NAiUVgxbIN-105" vertex="1">
          <mxGeometry x="1165" y="437" width="140" height="52" as="geometry" />
        </mxCell>
        <mxCell id="9BkR8ySJB5NAiUVgxbIN-111" value="Extends" style="endArrow=block;endSize=16;endFill=0;html=1;rounded=0;" parent="9BkR8ySJB5NAiUVgxbIN-105" source="9BkR8ySJB5NAiUVgxbIN-110" target="9BkR8ySJB5NAiUVgxbIN-106" edge="1">
          <mxGeometry width="160" relative="1" as="geometry">
            <mxPoint x="770" y="519" as="sourcePoint" />
            <mxPoint x="930" y="519" as="targetPoint" />
          </mxGeometry>
        </mxCell>
        <mxCell id="9BkR8ySJB5NAiUVgxbIN-112" value="Merchant" style="swimlane;fontStyle=1;align=center;verticalAlign=top;childLayout=stackLayout;horizontal=1;startSize=26;horizontalStack=0;resizeParent=1;resizeParentMax=0;resizeLast=0;collapsible=1;marginBottom=0;whiteSpace=wrap;html=1;" parent="9BkR8ySJB5NAiUVgxbIN-105" vertex="1">
          <mxGeometry x="584" y="452" width="179" height="312" as="geometry" />
        </mxCell>
        <mxCell id="9BkR8ySJB5NAiUVgxbIN-113" value="+ id: string" style="text;strokeColor=none;fillColor=none;align=left;verticalAlign=top;spacingLeft=4;spacingRight=4;overflow=hidden;rotatable=0;points=[[0,0.5],[1,0.5]];portConstraint=eastwest;whiteSpace=wrap;html=1;" parent="9BkR8ySJB5NAiUVgxbIN-112" vertex="1">
          <mxGeometry y="26" width="179" height="26" as="geometry" />
        </mxCell>
        <mxCell id="9BkR8ySJB5NAiUVgxbIN-114" value="+ phone: string" style="text;strokeColor=none;fillColor=none;align=left;verticalAlign=top;spacingLeft=4;spacingRight=4;overflow=hidden;rotatable=0;points=[[0,0.5],[1,0.5]];portConstraint=eastwest;whiteSpace=wrap;html=1;" parent="9BkR8ySJB5NAiUVgxbIN-112" vertex="1">
          <mxGeometry y="52" width="179" height="26" as="geometry" />
        </mxCell>
        <mxCell id="9BkR8ySJB5NAiUVgxbIN-115" value="+ description: string" style="text;strokeColor=none;fillColor=none;align=left;verticalAlign=top;spacingLeft=4;spacingRight=4;overflow=hidden;rotatable=0;points=[[0,0.5],[1,0.5]];portConstraint=eastwest;whiteSpace=wrap;html=1;" parent="9BkR8ySJB5NAiUVgxbIN-112" vertex="1">
          <mxGeometry y="78" width="179" height="26" as="geometry" />
        </mxCell>
        <mxCell id="9BkR8ySJB5NAiUVgxbIN-116" value="+ slogan: string" style="text;strokeColor=none;fillColor=none;align=left;verticalAlign=top;spacingLeft=4;spacingRight=4;overflow=hidden;rotatable=0;points=[[0,0.5],[1,0.5]];portConstraint=eastwest;whiteSpace=wrap;html=1;" parent="9BkR8ySJB5NAiUVgxbIN-112" vertex="1">
          <mxGeometry y="104" width="179" height="26" as="geometry" />
        </mxCell>
        <mxCell id="9BkR8ySJB5NAiUVgxbIN-117" value="+ address: string" style="text;strokeColor=none;fillColor=none;align=left;verticalAlign=top;spacingLeft=4;spacingRight=4;overflow=hidden;rotatable=0;points=[[0,0.5],[1,0.5]];portConstraint=eastwest;whiteSpace=wrap;html=1;" parent="9BkR8ySJB5NAiUVgxbIN-112" vertex="1">
          <mxGeometry y="130" width="179" height="26" as="geometry" />
        </mxCell>
        <mxCell id="9BkR8ySJB5NAiUVgxbIN-219" value="+ numberOfLikes: number" style="text;strokeColor=none;fillColor=none;align=left;verticalAlign=top;spacingLeft=4;spacingRight=4;overflow=hidden;rotatable=0;points=[[0,0.5],[1,0.5]];portConstraint=eastwest;whiteSpace=wrap;html=1;" parent="9BkR8ySJB5NAiUVgxbIN-112" vertex="1">
          <mxGeometry y="156" width="179" height="26" as="geometry" />
        </mxCell>
        <mxCell id="9BkR8ySJB5NAiUVgxbIN-220" value="+ numberOfProducts: number" style="text;strokeColor=none;fillColor=none;align=left;verticalAlign=top;spacingLeft=4;spacingRight=4;overflow=hidden;rotatable=0;points=[[0,0.5],[1,0.5]];portConstraint=eastwest;whiteSpace=wrap;html=1;" parent="9BkR8ySJB5NAiUVgxbIN-112" vertex="1">
          <mxGeometry y="182" width="179" height="26" as="geometry" />
        </mxCell>
        <mxCell id="9BkR8ySJB5NAiUVgxbIN-221" value="+ socialLinks: SocialLinks []" style="text;strokeColor=none;fillColor=none;align=left;verticalAlign=top;spacingLeft=4;spacingRight=4;overflow=hidden;rotatable=0;points=[[0,0.5],[1,0.5]];portConstraint=eastwest;whiteSpace=wrap;html=1;" parent="9BkR8ySJB5NAiUVgxbIN-112" vertex="1">
          <mxGeometry y="208" width="179" height="26" as="geometry" />
        </mxCell>
        <mxCell id="9BkR8ySJB5NAiUVgxbIN-222" value="+ avatar: Avatar" style="text;strokeColor=none;fillColor=none;align=left;verticalAlign=top;spacingLeft=4;spacingRight=4;overflow=hidden;rotatable=0;points=[[0,0.5],[1,0.5]];portConstraint=eastwest;whiteSpace=wrap;html=1;" parent="9BkR8ySJB5NAiUVgxbIN-112" vertex="1">
          <mxGeometry y="234" width="179" height="26" as="geometry" />
        </mxCell>
        <mxCell id="rHEqyXFxwkV-T4YenSiY-216" value="+ ownTemplates: Template []" style="text;strokeColor=none;fillColor=none;align=left;verticalAlign=top;spacingLeft=4;spacingRight=4;overflow=hidden;rotatable=0;points=[[0,0.5],[1,0.5]];portConstraint=eastwest;whiteSpace=wrap;html=1;" parent="9BkR8ySJB5NAiUVgxbIN-112" vertex="1">
          <mxGeometry y="260" width="179" height="26" as="geometry" />
        </mxCell>
        <mxCell id="RJX-MwFSKrjnUyUhUoWC-0" value="+ followers: User []&amp;nbsp;" style="text;strokeColor=none;fillColor=none;align=left;verticalAlign=top;spacingLeft=4;spacingRight=4;overflow=hidden;rotatable=0;points=[[0,0.5],[1,0.5]];portConstraint=eastwest;whiteSpace=wrap;html=1;" vertex="1" parent="9BkR8ySJB5NAiUVgxbIN-112">
          <mxGeometry y="286" width="179" height="26" as="geometry" />
        </mxCell>
        <mxCell id="9BkR8ySJB5NAiUVgxbIN-118" value="MerchantService" style="swimlane;fontStyle=1;align=center;verticalAlign=top;childLayout=stackLayout;horizontal=1;startSize=26;horizontalStack=0;resizeParent=1;resizeParentMax=0;resizeLast=0;collapsible=1;marginBottom=0;whiteSpace=wrap;html=1;" parent="9BkR8ySJB5NAiUVgxbIN-105" vertex="1">
          <mxGeometry x="578" y="847" width="604" height="86" as="geometry" />
        </mxCell>
        <mxCell id="9BkR8ySJB5NAiUVgxbIN-119" value="+ field: type" style="text;strokeColor=none;fillColor=none;align=left;verticalAlign=top;spacingLeft=4;spacingRight=4;overflow=hidden;rotatable=0;points=[[0,0.5],[1,0.5]];portConstraint=eastwest;whiteSpace=wrap;html=1;" parent="9BkR8ySJB5NAiUVgxbIN-118" vertex="1">
          <mxGeometry y="26" width="604" height="26" as="geometry" />
        </mxCell>
        <mxCell id="9BkR8ySJB5NAiUVgxbIN-120" value="" style="line;strokeWidth=1;fillColor=none;align=left;verticalAlign=middle;spacingTop=-1;spacingLeft=3;spacingRight=3;rotatable=0;labelPosition=right;points=[];portConstraint=eastwest;strokeColor=inherit;" parent="9BkR8ySJB5NAiUVgxbIN-118" vertex="1">
          <mxGeometry y="52" width="604" height="8" as="geometry" />
        </mxCell>
        <mxCell id="9BkR8ySJB5NAiUVgxbIN-130" value="void()" style="text;strokeColor=none;fillColor=none;align=left;verticalAlign=top;spacingLeft=4;spacingRight=4;overflow=hidden;rotatable=0;points=[[0,0.5],[1,0.5]];portConstraint=eastwest;whiteSpace=wrap;html=1;" parent="9BkR8ySJB5NAiUVgxbIN-118" vertex="1">
          <mxGeometry y="60" width="604" height="26" as="geometry" />
        </mxCell>
        <mxCell id="9BkR8ySJB5NAiUVgxbIN-131" value="Profile" style="swimlane;fontStyle=1;align=center;verticalAlign=top;childLayout=stackLayout;horizontal=1;startSize=26;horizontalStack=0;resizeParent=1;resizeParentMax=0;resizeLast=0;collapsible=1;marginBottom=0;whiteSpace=wrap;html=1;" parent="9BkR8ySJB5NAiUVgxbIN-105" vertex="1">
          <mxGeometry x="871" y="489" width="160" height="104" as="geometry" />
        </mxCell>
        <mxCell id="9BkR8ySJB5NAiUVgxbIN-132" value="+ id: string" style="text;strokeColor=none;fillColor=none;align=left;verticalAlign=top;spacingLeft=4;spacingRight=4;overflow=hidden;rotatable=0;points=[[0,0.5],[1,0.5]];portConstraint=eastwest;whiteSpace=wrap;html=1;" parent="9BkR8ySJB5NAiUVgxbIN-131" vertex="1">
          <mxGeometry y="26" width="160" height="26" as="geometry" />
        </mxCell>
        <mxCell id="9BkR8ySJB5NAiUVgxbIN-133" value="+ provider: string" style="text;strokeColor=none;fillColor=none;align=left;verticalAlign=top;spacingLeft=4;spacingRight=4;overflow=hidden;rotatable=0;points=[[0,0.5],[1,0.5]];portConstraint=eastwest;whiteSpace=wrap;html=1;" parent="9BkR8ySJB5NAiUVgxbIN-131" vertex="1">
          <mxGeometry y="52" width="160" height="26" as="geometry" />
        </mxCell>
        <mxCell id="9BkR8ySJB5NAiUVgxbIN-134" value="+ data: TProfile" style="text;strokeColor=none;fillColor=none;align=left;verticalAlign=top;spacingLeft=4;spacingRight=4;overflow=hidden;rotatable=0;points=[[0,0.5],[1,0.5]];portConstraint=eastwest;whiteSpace=wrap;html=1;" parent="9BkR8ySJB5NAiUVgxbIN-131" vertex="1">
          <mxGeometry y="78" width="160" height="26" as="geometry" />
        </mxCell>
        <mxCell id="9BkR8ySJB5NAiUVgxbIN-135" value="" style="endArrow=diamondThin;endFill=0;endSize=24;html=1;rounded=0;" parent="9BkR8ySJB5NAiUVgxbIN-105" source="9BkR8ySJB5NAiUVgxbIN-131" target="9BkR8ySJB5NAiUVgxbIN-112" edge="1">
          <mxGeometry width="160" relative="1" as="geometry">
            <mxPoint x="692" y="723" as="sourcePoint" />
            <mxPoint x="852" y="723" as="targetPoint" />
          </mxGeometry>
        </mxCell>
        <mxCell id="9BkR8ySJB5NAiUVgxbIN-136" value="&lt;p style=&quot;margin:0px;margin-top:4px;text-align:center;&quot;&gt;&lt;i&gt;&amp;lt;&amp;lt;Interface&amp;gt;&amp;gt;&lt;/i&gt;&lt;br&gt;&lt;b&gt;IMerchantQuery&lt;/b&gt;&lt;/p&gt;&lt;hr size=&quot;1&quot; style=&quot;border-style:solid;&quot;&gt;&lt;p style=&quot;margin:0px;margin-left:4px;&quot;&gt;&amp;nbsp;&amp;nbsp;&lt;/p&gt;" style="verticalAlign=top;align=left;overflow=fill;html=1;whiteSpace=wrap;" parent="9BkR8ySJB5NAiUVgxbIN-105" vertex="1">
          <mxGeometry x="532" y="1236" width="190" height="80" as="geometry" />
        </mxCell>
        <mxCell id="9BkR8ySJB5NAiUVgxbIN-137" value="&lt;p style=&quot;margin:0px;margin-top:4px;text-align:center;&quot;&gt;&lt;i&gt;&amp;lt;&amp;lt;Interface&amp;gt;&amp;gt;&lt;/i&gt;&lt;br&gt;&lt;b&gt;IDatabaseCRUD&lt;/b&gt;&lt;/p&gt;&lt;hr size=&quot;1&quot; style=&quot;border-style:solid;&quot;&gt;&lt;p style=&quot;margin:0px;margin-left:4px;&quot;&gt;&lt;br&gt;&lt;/p&gt;" style="verticalAlign=top;align=left;overflow=fill;html=1;whiteSpace=wrap;" parent="9BkR8ySJB5NAiUVgxbIN-105" vertex="1">
          <mxGeometry x="781" y="1236" width="190" height="80" as="geometry" />
        </mxCell>
        <mxCell id="9BkR8ySJB5NAiUVgxbIN-138" value="&lt;p style=&quot;margin:0px;margin-top:4px;text-align:center;&quot;&gt;&lt;i&gt;&amp;lt;&amp;lt;Interface&amp;gt;&amp;gt;&lt;/i&gt;&lt;br&gt;&lt;b&gt;IMerchantAction&lt;/b&gt;&lt;/p&gt;&lt;hr size=&quot;1&quot; style=&quot;border-style:solid;&quot;&gt;&lt;p style=&quot;margin:0px;margin-left:4px;&quot;&gt;&lt;br&gt;&lt;/p&gt;" style="verticalAlign=top;align=left;overflow=fill;html=1;whiteSpace=wrap;" parent="9BkR8ySJB5NAiUVgxbIN-105" vertex="1">
          <mxGeometry x="1014" y="1236" width="394" height="82" as="geometry" />
        </mxCell>
        <mxCell id="9BkR8ySJB5NAiUVgxbIN-139" value="" style="endArrow=block;dashed=1;endFill=0;endSize=12;html=1;rounded=0;" parent="9BkR8ySJB5NAiUVgxbIN-105" source="9BkR8ySJB5NAiUVgxbIN-118" target="9BkR8ySJB5NAiUVgxbIN-136" edge="1">
          <mxGeometry width="160" relative="1" as="geometry">
            <mxPoint x="649" y="1159" as="sourcePoint" />
            <mxPoint x="809" y="1159" as="targetPoint" />
          </mxGeometry>
        </mxCell>
        <mxCell id="9BkR8ySJB5NAiUVgxbIN-140" value="" style="endArrow=block;dashed=1;endFill=0;endSize=12;html=1;rounded=0;" parent="9BkR8ySJB5NAiUVgxbIN-105" source="9BkR8ySJB5NAiUVgxbIN-118" target="9BkR8ySJB5NAiUVgxbIN-137" edge="1">
          <mxGeometry width="160" relative="1" as="geometry">
            <mxPoint x="827" y="943" as="sourcePoint" />
            <mxPoint x="704" y="1026" as="targetPoint" />
          </mxGeometry>
        </mxCell>
        <mxCell id="9BkR8ySJB5NAiUVgxbIN-141" value="" style="endArrow=block;dashed=1;endFill=0;endSize=12;html=1;rounded=0;" parent="9BkR8ySJB5NAiUVgxbIN-105" source="9BkR8ySJB5NAiUVgxbIN-118" target="9BkR8ySJB5NAiUVgxbIN-138" edge="1">
          <mxGeometry width="160" relative="1" as="geometry">
            <mxPoint x="891" y="943" as="sourcePoint" />
            <mxPoint x="893" y="1026" as="targetPoint" />
          </mxGeometry>
        </mxCell>
        <mxCell id="9BkR8ySJB5NAiUVgxbIN-150" value="CreateSocialLinkDTO" style="swimlane;fontStyle=0;childLayout=stackLayout;horizontal=1;startSize=26;fillColor=none;horizontalStack=0;resizeParent=1;resizeParentMax=0;resizeLast=0;collapsible=1;marginBottom=0;whiteSpace=wrap;html=1;" parent="9BkR8ySJB5NAiUVgxbIN-105" vertex="1">
          <mxGeometry x="92" y="145" width="216" height="130" as="geometry" />
        </mxCell>
        <mxCell id="9BkR8ySJB5NAiUVgxbIN-159" value="+ id: number" style="text;strokeColor=none;fillColor=none;align=left;verticalAlign=top;spacingLeft=4;spacingRight=4;overflow=hidden;rotatable=0;points=[[0,0.5],[1,0.5]];portConstraint=eastwest;whiteSpace=wrap;html=1;" parent="9BkR8ySJB5NAiUVgxbIN-150" vertex="1">
          <mxGeometry y="26" width="216" height="26" as="geometry" />
        </mxCell>
        <mxCell id="9BkR8ySJB5NAiUVgxbIN-160" value="+ provider: TSocialLinkProvider" style="text;strokeColor=none;fillColor=none;align=left;verticalAlign=top;spacingLeft=4;spacingRight=4;overflow=hidden;rotatable=0;points=[[0,0.5],[1,0.5]];portConstraint=eastwest;whiteSpace=wrap;html=1;" parent="9BkR8ySJB5NAiUVgxbIN-150" vertex="1">
          <mxGeometry y="52" width="216" height="26" as="geometry" />
        </mxCell>
        <mxCell id="9BkR8ySJB5NAiUVgxbIN-161" value="+ data: string" style="text;strokeColor=none;fillColor=none;align=left;verticalAlign=top;spacingLeft=4;spacingRight=4;overflow=hidden;rotatable=0;points=[[0,0.5],[1,0.5]];portConstraint=eastwest;whiteSpace=wrap;html=1;" parent="9BkR8ySJB5NAiUVgxbIN-150" vertex="1">
          <mxGeometry y="78" width="216" height="26" as="geometry" />
        </mxCell>
        <mxCell id="9BkR8ySJB5NAiUVgxbIN-162" value="+ merchantId: string" style="text;strokeColor=none;fillColor=none;align=left;verticalAlign=top;spacingLeft=4;spacingRight=4;overflow=hidden;rotatable=0;points=[[0,0.5],[1,0.5]];portConstraint=eastwest;whiteSpace=wrap;html=1;" parent="9BkR8ySJB5NAiUVgxbIN-150" vertex="1">
          <mxGeometry y="104" width="216" height="26" as="geometry" />
        </mxCell>
        <mxCell id="9BkR8ySJB5NAiUVgxbIN-163" value="" style="endArrow=diamondThin;endFill=0;endSize=24;html=1;rounded=0;" parent="9BkR8ySJB5NAiUVgxbIN-105" source="9BkR8ySJB5NAiUVgxbIN-150" target="9BkR8ySJB5NAiUVgxbIN-106" edge="1">
          <mxGeometry width="160" relative="1" as="geometry">
            <mxPoint x="465" y="476" as="sourcePoint" />
            <mxPoint x="625" y="476" as="targetPoint" />
          </mxGeometry>
        </mxCell>
        <mxCell id="9BkR8ySJB5NAiUVgxbIN-213" value="CreateAvatarDTO" style="swimlane;fontStyle=0;childLayout=stackLayout;horizontal=1;startSize=26;fillColor=none;horizontalStack=0;resizeParent=1;resizeParentMax=0;resizeLast=0;collapsible=1;marginBottom=0;whiteSpace=wrap;html=1;" parent="9BkR8ySJB5NAiUVgxbIN-105" vertex="1">
          <mxGeometry x="69" y="394" width="216" height="130" as="geometry" />
        </mxCell>
        <mxCell id="9BkR8ySJB5NAiUVgxbIN-214" value="+ id: number" style="text;strokeColor=none;fillColor=none;align=left;verticalAlign=top;spacingLeft=4;spacingRight=4;overflow=hidden;rotatable=0;points=[[0,0.5],[1,0.5]];portConstraint=eastwest;whiteSpace=wrap;html=1;" parent="9BkR8ySJB5NAiUVgxbIN-213" vertex="1">
          <mxGeometry y="26" width="216" height="26" as="geometry" />
        </mxCell>
        <mxCell id="9BkR8ySJB5NAiUVgxbIN-215" value="+ data: any" style="text;strokeColor=none;fillColor=none;align=left;verticalAlign=top;spacingLeft=4;spacingRight=4;overflow=hidden;rotatable=0;points=[[0,0.5],[1,0.5]];portConstraint=eastwest;whiteSpace=wrap;html=1;" parent="9BkR8ySJB5NAiUVgxbIN-213" vertex="1">
          <mxGeometry y="52" width="216" height="26" as="geometry" />
        </mxCell>
        <mxCell id="9BkR8ySJB5NAiUVgxbIN-216" value="+ altTexts: string []" style="text;strokeColor=none;fillColor=none;align=left;verticalAlign=top;spacingLeft=4;spacingRight=4;overflow=hidden;rotatable=0;points=[[0,0.5],[1,0.5]];portConstraint=eastwest;whiteSpace=wrap;html=1;" parent="9BkR8ySJB5NAiUVgxbIN-213" vertex="1">
          <mxGeometry y="78" width="216" height="26" as="geometry" />
        </mxCell>
        <mxCell id="9BkR8ySJB5NAiUVgxbIN-217" value="+ merchantId: string" style="text;strokeColor=none;fillColor=none;align=left;verticalAlign=top;spacingLeft=4;spacingRight=4;overflow=hidden;rotatable=0;points=[[0,0.5],[1,0.5]];portConstraint=eastwest;whiteSpace=wrap;html=1;" parent="9BkR8ySJB5NAiUVgxbIN-213" vertex="1">
          <mxGeometry y="104" width="216" height="26" as="geometry" />
        </mxCell>
        <mxCell id="9BkR8ySJB5NAiUVgxbIN-218" value="" style="endArrow=diamondThin;endFill=0;endSize=24;html=1;rounded=0;" parent="9BkR8ySJB5NAiUVgxbIN-105" source="9BkR8ySJB5NAiUVgxbIN-213" target="9BkR8ySJB5NAiUVgxbIN-106" edge="1">
          <mxGeometry width="160" relative="1" as="geometry">
            <mxPoint x="474" y="268" as="sourcePoint" />
            <mxPoint x="604" y="237" as="targetPoint" />
          </mxGeometry>
        </mxCell>
        <mxCell id="rHEqyXFxwkV-T4YenSiY-115" value="CreateTemplateTypeDTO" style="swimlane;fontStyle=0;childLayout=stackLayout;horizontal=1;startSize=26;fillColor=none;horizontalStack=0;resizeParent=1;resizeParentMax=0;resizeLast=0;collapsible=1;marginBottom=0;whiteSpace=wrap;html=1;" parent="9BkR8ySJB5NAiUVgxbIN-105" vertex="1">
          <mxGeometry x="225" y="576" width="216" height="104" as="geometry" />
        </mxCell>
        <mxCell id="rHEqyXFxwkV-T4YenSiY-116" value="+ id: number" style="text;strokeColor=none;fillColor=none;align=left;verticalAlign=top;spacingLeft=4;spacingRight=4;overflow=hidden;rotatable=0;points=[[0,0.5],[1,0.5]];portConstraint=eastwest;whiteSpace=wrap;html=1;" parent="rHEqyXFxwkV-T4YenSiY-115" vertex="1">
          <mxGeometry y="26" width="216" height="26" as="geometry" />
        </mxCell>
        <mxCell id="rHEqyXFxwkV-T4YenSiY-117" value="+ templateType: any" style="text;strokeColor=none;fillColor=none;align=left;verticalAlign=top;spacingLeft=4;spacingRight=4;overflow=hidden;rotatable=0;points=[[0,0.5],[1,0.5]];portConstraint=eastwest;whiteSpace=wrap;html=1;" parent="rHEqyXFxwkV-T4YenSiY-115" vertex="1">
          <mxGeometry y="52" width="216" height="26" as="geometry" />
        </mxCell>
        <mxCell id="rHEqyXFxwkV-T4YenSiY-118" value="+ type: any" style="text;strokeColor=none;fillColor=none;align=left;verticalAlign=top;spacingLeft=4;spacingRight=4;overflow=hidden;rotatable=0;points=[[0,0.5],[1,0.5]];portConstraint=eastwest;whiteSpace=wrap;html=1;" parent="rHEqyXFxwkV-T4YenSiY-115" vertex="1">
          <mxGeometry y="78" width="216" height="26" as="geometry" />
        </mxCell>
        <mxCell id="rHEqyXFxwkV-T4YenSiY-119" value="" style="endArrow=diamondThin;endFill=0;endSize=24;html=1;rounded=0;" parent="9BkR8ySJB5NAiUVgxbIN-105" source="rHEqyXFxwkV-T4YenSiY-115" target="9BkR8ySJB5NAiUVgxbIN-106" edge="1">
          <mxGeometry width="160" relative="1" as="geometry">
            <mxPoint x="295" y="416" as="sourcePoint" />
            <mxPoint x="604" y="265" as="targetPoint" />
          </mxGeometry>
        </mxCell>
        <mxCell id="9BkR8ySJB5NAiUVgxbIN-224" value="Extends" style="endArrow=block;endSize=16;endFill=0;html=1;rounded=0;edgeStyle=orthogonalEdgeStyle;elbow=vertical;" parent="WIyWlLk6GJQsqaUBKTNV-1" source="9BkR8ySJB5NAiUVgxbIN-136" target="_vMdqk_4-bU8DDcagTp9-112" edge="1">
          <mxGeometry width="160" relative="1" as="geometry">
            <mxPoint x="-2883" y="1500" as="sourcePoint" />
            <mxPoint x="-1190" y="878" as="targetPoint" />
            <Array as="points">
              <mxPoint x="-2256" y="3685" />
              <mxPoint x="-2256" y="2240" />
              <mxPoint x="-1502" y="2240" />
              <mxPoint x="-1502" y="868" />
            </Array>
          </mxGeometry>
        </mxCell>
        <mxCell id="9BkR8ySJB5NAiUVgxbIN-225" value="Extends" style="endArrow=block;endSize=16;endFill=0;html=1;rounded=0;edgeStyle=orthogonalEdgeStyle;elbow=vertical;" parent="WIyWlLk6GJQsqaUBKTNV-1" source="9BkR8ySJB5NAiUVgxbIN-137" target="_vMdqk_4-bU8DDcagTp9-113" edge="1">
          <mxGeometry width="160" relative="1" as="geometry">
            <mxPoint x="-2639" y="1500" as="sourcePoint" />
            <mxPoint x="-1190" y="1080" as="targetPoint" />
            <Array as="points">
              <mxPoint x="-1215" y="3856" />
              <mxPoint x="-2639" y="3856" />
              <mxPoint x="-2639" y="2104" />
              <mxPoint x="-1112" y="2104" />
            </Array>
          </mxGeometry>
        </mxCell>
        <mxCell id="rHEqyXFxwkV-T4YenSiY-121" value=":Template" style="shape=folder;fontStyle=1;tabWidth=110;tabHeight=30;tabPosition=left;html=1;boundedLbl=1;labelInHeader=1;container=1;collapsible=0;recursiveResize=0;whiteSpace=wrap;fillColor=#E6E6E6;" parent="WIyWlLk6GJQsqaUBKTNV-1" vertex="1">
          <mxGeometry x="301" y="2346" width="1902" height="1758" as="geometry" />
        </mxCell>
        <mxCell id="rHEqyXFxwkV-T4YenSiY-135" value="Template" style="swimlane;fontStyle=1;align=center;verticalAlign=top;childLayout=stackLayout;horizontal=1;startSize=26;horizontalStack=0;resizeParent=1;resizeParentMax=0;resizeLast=0;collapsible=1;marginBottom=0;whiteSpace=wrap;html=1;" parent="rHEqyXFxwkV-T4YenSiY-121" vertex="1">
          <mxGeometry x="550" y="433" width="179" height="260" as="geometry" />
        </mxCell>
        <mxCell id="rHEqyXFxwkV-T4YenSiY-136" value="+ id: string" style="text;strokeColor=none;fillColor=none;align=left;verticalAlign=top;spacingLeft=4;spacingRight=4;overflow=hidden;rotatable=0;points=[[0,0.5],[1,0.5]];portConstraint=eastwest;whiteSpace=wrap;html=1;" parent="rHEqyXFxwkV-T4YenSiY-135" vertex="1">
          <mxGeometry y="26" width="179" height="26" as="geometry" />
        </mxCell>
        <mxCell id="rHEqyXFxwkV-T4YenSiY-181" value="+ name: string" style="text;strokeColor=none;fillColor=none;align=left;verticalAlign=top;spacingLeft=4;spacingRight=4;overflow=hidden;rotatable=0;points=[[0,0.5],[1,0.5]];portConstraint=eastwest;whiteSpace=wrap;html=1;" parent="rHEqyXFxwkV-T4YenSiY-135" vertex="1">
          <mxGeometry y="52" width="179" height="26" as="geometry" />
        </mxCell>
        <mxCell id="rHEqyXFxwkV-T4YenSiY-191" value="+ templateType: any" style="text;strokeColor=none;fillColor=none;align=left;verticalAlign=top;spacingLeft=4;spacingRight=4;overflow=hidden;rotatable=0;points=[[0,0.5],[1,0.5]];portConstraint=eastwest;whiteSpace=wrap;html=1;" parent="rHEqyXFxwkV-T4YenSiY-135" vertex="1">
          <mxGeometry y="78" width="179" height="26" as="geometry" />
        </mxCell>
        <mxCell id="rHEqyXFxwkV-T4YenSiY-192" value="+ objectType: any" style="text;strokeColor=none;fillColor=none;align=left;verticalAlign=top;spacingLeft=4;spacingRight=4;overflow=hidden;rotatable=0;points=[[0,0.5],[1,0.5]];portConstraint=eastwest;whiteSpace=wrap;html=1;" parent="rHEqyXFxwkV-T4YenSiY-135" vertex="1">
          <mxGeometry y="104" width="179" height="26" as="geometry" />
        </mxCell>
        <mxCell id="rHEqyXFxwkV-T4YenSiY-138" value="+ description: string" style="text;strokeColor=none;fillColor=none;align=left;verticalAlign=top;spacingLeft=4;spacingRight=4;overflow=hidden;rotatable=0;points=[[0,0.5],[1,0.5]];portConstraint=eastwest;whiteSpace=wrap;html=1;" parent="rHEqyXFxwkV-T4YenSiY-135" vertex="1">
          <mxGeometry y="130" width="179" height="26" as="geometry" />
        </mxCell>
        <mxCell id="rHEqyXFxwkV-T4YenSiY-182" value="+ numberOfLikes: number" style="text;strokeColor=none;fillColor=none;align=left;verticalAlign=top;spacingLeft=4;spacingRight=4;overflow=hidden;rotatable=0;points=[[0,0.5],[1,0.5]];portConstraint=eastwest;whiteSpace=wrap;html=1;" parent="rHEqyXFxwkV-T4YenSiY-135" vertex="1">
          <mxGeometry y="156" width="179" height="26" as="geometry" />
        </mxCell>
        <mxCell id="rHEqyXFxwkV-T4YenSiY-183" value="+ brief: string" style="text;strokeColor=none;fillColor=none;align=left;verticalAlign=top;spacingLeft=4;spacingRight=4;overflow=hidden;rotatable=0;points=[[0,0.5],[1,0.5]];portConstraint=eastwest;whiteSpace=wrap;html=1;" parent="rHEqyXFxwkV-T4YenSiY-135" vertex="1">
          <mxGeometry y="182" width="179" height="26" as="geometry" />
        </mxCell>
        <mxCell id="rHEqyXFxwkV-T4YenSiY-184" value="+ description: string" style="text;strokeColor=none;fillColor=none;align=left;verticalAlign=top;spacingLeft=4;spacingRight=4;overflow=hidden;rotatable=0;points=[[0,0.5],[1,0.5]];portConstraint=eastwest;whiteSpace=wrap;html=1;" parent="rHEqyXFxwkV-T4YenSiY-135" vertex="1">
          <mxGeometry y="208" width="179" height="26" as="geometry" />
        </mxCell>
        <mxCell id="rHEqyXFxwkV-T4YenSiY-185" value="+ tagLabels: string []" style="text;strokeColor=none;fillColor=none;align=left;verticalAlign=top;spacingLeft=4;spacingRight=4;overflow=hidden;rotatable=0;points=[[0,0.5],[1,0.5]];portConstraint=eastwest;whiteSpace=wrap;html=1;" parent="rHEqyXFxwkV-T4YenSiY-135" vertex="1">
          <mxGeometry y="234" width="179" height="26" as="geometry" />
        </mxCell>
        <mxCell id="rHEqyXFxwkV-T4YenSiY-145" value="TemplateService" style="swimlane;fontStyle=1;align=center;verticalAlign=top;childLayout=stackLayout;horizontal=1;startSize=26;horizontalStack=0;resizeParent=1;resizeParentMax=0;resizeLast=0;collapsible=1;marginBottom=0;whiteSpace=wrap;html=1;" parent="rHEqyXFxwkV-T4YenSiY-121" vertex="1">
          <mxGeometry x="578" y="847" width="604" height="86" as="geometry" />
        </mxCell>
        <mxCell id="rHEqyXFxwkV-T4YenSiY-146" value="+ field: type" style="text;strokeColor=none;fillColor=none;align=left;verticalAlign=top;spacingLeft=4;spacingRight=4;overflow=hidden;rotatable=0;points=[[0,0.5],[1,0.5]];portConstraint=eastwest;whiteSpace=wrap;html=1;" parent="rHEqyXFxwkV-T4YenSiY-145" vertex="1">
          <mxGeometry y="26" width="604" height="26" as="geometry" />
        </mxCell>
        <mxCell id="rHEqyXFxwkV-T4YenSiY-147" value="" style="line;strokeWidth=1;fillColor=none;align=left;verticalAlign=middle;spacingTop=-1;spacingLeft=3;spacingRight=3;rotatable=0;labelPosition=right;points=[];portConstraint=eastwest;strokeColor=inherit;" parent="rHEqyXFxwkV-T4YenSiY-145" vertex="1">
          <mxGeometry y="52" width="604" height="8" as="geometry" />
        </mxCell>
        <mxCell id="rHEqyXFxwkV-T4YenSiY-148" value="void()" style="text;strokeColor=none;fillColor=none;align=left;verticalAlign=top;spacingLeft=4;spacingRight=4;overflow=hidden;rotatable=0;points=[[0,0.5],[1,0.5]];portConstraint=eastwest;whiteSpace=wrap;html=1;" parent="rHEqyXFxwkV-T4YenSiY-145" vertex="1">
          <mxGeometry y="60" width="604" height="26" as="geometry" />
        </mxCell>
        <mxCell id="rHEqyXFxwkV-T4YenSiY-154" value="&lt;p style=&quot;margin:0px;margin-top:4px;text-align:center;&quot;&gt;&lt;i&gt;&amp;lt;&amp;lt;Interface&amp;gt;&amp;gt;&lt;/i&gt;&lt;br&gt;&lt;b&gt;ITemplateQuery&lt;/b&gt;&lt;/p&gt;&lt;hr size=&quot;1&quot; style=&quot;border-style:solid;&quot;&gt;&lt;p style=&quot;margin:0px;margin-left:4px;&quot;&gt;&amp;nbsp;&amp;nbsp;&lt;/p&gt;" style="verticalAlign=top;align=left;overflow=fill;html=1;whiteSpace=wrap;" parent="rHEqyXFxwkV-T4YenSiY-121" vertex="1">
          <mxGeometry x="532" y="1236" width="190" height="80" as="geometry" />
        </mxCell>
        <mxCell id="rHEqyXFxwkV-T4YenSiY-155" value="&lt;p style=&quot;margin:0px;margin-top:4px;text-align:center;&quot;&gt;&lt;i&gt;&amp;lt;&amp;lt;Interface&amp;gt;&amp;gt;&lt;/i&gt;&lt;br&gt;&lt;b&gt;IDatabaseCRUD&lt;/b&gt;&lt;/p&gt;&lt;hr size=&quot;1&quot; style=&quot;border-style:solid;&quot;&gt;&lt;p style=&quot;margin:0px;margin-left:4px;&quot;&gt;&lt;br&gt;&lt;/p&gt;" style="verticalAlign=top;align=left;overflow=fill;html=1;whiteSpace=wrap;" parent="rHEqyXFxwkV-T4YenSiY-121" vertex="1">
          <mxGeometry x="781" y="1236" width="190" height="80" as="geometry" />
        </mxCell>
        <mxCell id="rHEqyXFxwkV-T4YenSiY-156" value="&lt;p style=&quot;margin:0px;margin-top:4px;text-align:center;&quot;&gt;&lt;i&gt;&amp;lt;&amp;lt;Interface&amp;gt;&amp;gt;&lt;/i&gt;&lt;br&gt;&lt;b&gt;ITemplateAction&lt;/b&gt;&lt;/p&gt;&lt;hr size=&quot;1&quot; style=&quot;border-style:solid;&quot;&gt;&lt;p style=&quot;margin:0px;margin-left:4px;&quot;&gt;&lt;br&gt;&lt;/p&gt;" style="verticalAlign=top;align=left;overflow=fill;html=1;whiteSpace=wrap;" parent="rHEqyXFxwkV-T4YenSiY-121" vertex="1">
          <mxGeometry x="1014" y="1236" width="394" height="82" as="geometry" />
        </mxCell>
        <mxCell id="rHEqyXFxwkV-T4YenSiY-157" value="" style="endArrow=block;dashed=1;endFill=0;endSize=12;html=1;rounded=0;" parent="rHEqyXFxwkV-T4YenSiY-121" source="rHEqyXFxwkV-T4YenSiY-145" target="rHEqyXFxwkV-T4YenSiY-154" edge="1">
          <mxGeometry width="160" relative="1" as="geometry">
            <mxPoint x="649" y="1159" as="sourcePoint" />
            <mxPoint x="809" y="1159" as="targetPoint" />
          </mxGeometry>
        </mxCell>
        <mxCell id="rHEqyXFxwkV-T4YenSiY-158" value="" style="endArrow=block;dashed=1;endFill=0;endSize=12;html=1;rounded=0;" parent="rHEqyXFxwkV-T4YenSiY-121" source="rHEqyXFxwkV-T4YenSiY-145" target="rHEqyXFxwkV-T4YenSiY-155" edge="1">
          <mxGeometry width="160" relative="1" as="geometry">
            <mxPoint x="827" y="943" as="sourcePoint" />
            <mxPoint x="704" y="1026" as="targetPoint" />
          </mxGeometry>
        </mxCell>
        <mxCell id="rHEqyXFxwkV-T4YenSiY-159" value="" style="endArrow=block;dashed=1;endFill=0;endSize=12;html=1;rounded=0;" parent="rHEqyXFxwkV-T4YenSiY-121" source="rHEqyXFxwkV-T4YenSiY-145" target="rHEqyXFxwkV-T4YenSiY-156" edge="1">
          <mxGeometry width="160" relative="1" as="geometry">
            <mxPoint x="891" y="943" as="sourcePoint" />
            <mxPoint x="893" y="1026" as="targetPoint" />
          </mxGeometry>
        </mxCell>
        <mxCell id="rHEqyXFxwkV-T4YenSiY-177" value="CreateTemplateTypeDTO" style="swimlane;fontStyle=0;childLayout=stackLayout;horizontal=1;startSize=26;fillColor=none;horizontalStack=0;resizeParent=1;resizeParentMax=0;resizeLast=0;collapsible=1;marginBottom=0;whiteSpace=wrap;html=1;" parent="rHEqyXFxwkV-T4YenSiY-121" vertex="1">
          <mxGeometry x="868" y="101" width="216" height="286" as="geometry" />
        </mxCell>
        <mxCell id="rHEqyXFxwkV-T4YenSiY-204" value="+ id: string" style="text;strokeColor=none;fillColor=none;align=left;verticalAlign=top;spacingLeft=4;spacingRight=4;overflow=hidden;rotatable=0;points=[[0,0.5],[1,0.5]];portConstraint=eastwest;whiteSpace=wrap;html=1;" parent="rHEqyXFxwkV-T4YenSiY-177" vertex="1">
          <mxGeometry y="26" width="216" height="26" as="geometry" />
        </mxCell>
        <mxCell id="rHEqyXFxwkV-T4YenSiY-210" value="+ name: string" style="text;strokeColor=none;fillColor=none;align=left;verticalAlign=top;spacingLeft=4;spacingRight=4;overflow=hidden;rotatable=0;points=[[0,0.5],[1,0.5]];portConstraint=eastwest;whiteSpace=wrap;html=1;" parent="rHEqyXFxwkV-T4YenSiY-177" vertex="1">
          <mxGeometry y="52" width="216" height="26" as="geometry" />
        </mxCell>
        <mxCell id="rHEqyXFxwkV-T4YenSiY-206" value="+ objectType: any" style="text;strokeColor=none;fillColor=none;align=left;verticalAlign=top;spacingLeft=4;spacingRight=4;overflow=hidden;rotatable=0;points=[[0,0.5],[1,0.5]];portConstraint=eastwest;whiteSpace=wrap;html=1;" parent="rHEqyXFxwkV-T4YenSiY-177" vertex="1">
          <mxGeometry y="78" width="216" height="26" as="geometry" />
        </mxCell>
        <mxCell id="rHEqyXFxwkV-T4YenSiY-205" value="+ templateType: any" style="text;strokeColor=none;fillColor=none;align=left;verticalAlign=top;spacingLeft=4;spacingRight=4;overflow=hidden;rotatable=0;points=[[0,0.5],[1,0.5]];portConstraint=eastwest;whiteSpace=wrap;html=1;" parent="rHEqyXFxwkV-T4YenSiY-177" vertex="1">
          <mxGeometry y="104" width="216" height="26" as="geometry" />
        </mxCell>
        <mxCell id="rHEqyXFxwkV-T4YenSiY-213" value="+ description: string" style="text;strokeColor=none;fillColor=none;align=left;verticalAlign=top;spacingLeft=4;spacingRight=4;overflow=hidden;rotatable=0;points=[[0,0.5],[1,0.5]];portConstraint=eastwest;whiteSpace=wrap;html=1;" parent="rHEqyXFxwkV-T4YenSiY-177" vertex="1">
          <mxGeometry y="130" width="216" height="26" as="geometry" />
        </mxCell>
        <mxCell id="rHEqyXFxwkV-T4YenSiY-212" value="+ brief: string" style="text;strokeColor=none;fillColor=none;align=left;verticalAlign=top;spacingLeft=4;spacingRight=4;overflow=hidden;rotatable=0;points=[[0,0.5],[1,0.5]];portConstraint=eastwest;whiteSpace=wrap;html=1;" parent="rHEqyXFxwkV-T4YenSiY-177" vertex="1">
          <mxGeometry y="156" width="216" height="26" as="geometry" />
        </mxCell>
        <mxCell id="rHEqyXFxwkV-T4YenSiY-211" value="+ numberOfLikes: number" style="text;strokeColor=none;fillColor=none;align=left;verticalAlign=top;spacingLeft=4;spacingRight=4;overflow=hidden;rotatable=0;points=[[0,0.5],[1,0.5]];portConstraint=eastwest;whiteSpace=wrap;html=1;" parent="rHEqyXFxwkV-T4YenSiY-177" vertex="1">
          <mxGeometry y="182" width="216" height="26" as="geometry" />
        </mxCell>
        <mxCell id="rHEqyXFxwkV-T4YenSiY-208" value="+ description: string" style="text;strokeColor=none;fillColor=none;align=left;verticalAlign=top;spacingLeft=4;spacingRight=4;overflow=hidden;rotatable=0;points=[[0,0.5],[1,0.5]];portConstraint=eastwest;whiteSpace=wrap;html=1;" parent="rHEqyXFxwkV-T4YenSiY-177" vertex="1">
          <mxGeometry y="208" width="216" height="26" as="geometry" />
        </mxCell>
        <mxCell id="rHEqyXFxwkV-T4YenSiY-214" value="+ tagLabels: string []" style="text;strokeColor=none;fillColor=none;align=left;verticalAlign=top;spacingLeft=4;spacingRight=4;overflow=hidden;rotatable=0;points=[[0,0.5],[1,0.5]];portConstraint=eastwest;whiteSpace=wrap;html=1;" parent="rHEqyXFxwkV-T4YenSiY-177" vertex="1">
          <mxGeometry y="234" width="216" height="26" as="geometry" />
        </mxCell>
        <mxCell id="rHEqyXFxwkV-T4YenSiY-215" value="+ version: any" style="text;strokeColor=none;fillColor=none;align=left;verticalAlign=top;spacingLeft=4;spacingRight=4;overflow=hidden;rotatable=0;points=[[0,0.5],[1,0.5]];portConstraint=eastwest;whiteSpace=wrap;html=1;" parent="rHEqyXFxwkV-T4YenSiY-177" vertex="1">
          <mxGeometry y="260" width="216" height="26" as="geometry" />
        </mxCell>
        <mxCell id="rHEqyXFxwkV-T4YenSiY-187" value="" style="endArrow=diamondThin;endFill=0;endSize=24;html=1;rounded=0;" parent="rHEqyXFxwkV-T4YenSiY-121" source="rHEqyXFxwkV-T4YenSiY-177" target="rHEqyXFxwkV-T4YenSiY-135" edge="1">
          <mxGeometry width="160" relative="1" as="geometry">
            <mxPoint x="801" y="463" as="sourcePoint" />
            <mxPoint x="961" y="463" as="targetPoint" />
          </mxGeometry>
        </mxCell>
        <mxCell id="rHEqyXFxwkV-T4YenSiY-188" value="" style="endArrow=diamondThin;endFill=0;endSize=24;html=1;rounded=0;" parent="rHEqyXFxwkV-T4YenSiY-121" source="rHEqyXFxwkV-T4YenSiY-135" target="rHEqyXFxwkV-T4YenSiY-145" edge="1">
          <mxGeometry width="160" relative="1" as="geometry">
            <mxPoint x="681" y="383" as="sourcePoint" />
            <mxPoint x="677" y="534" as="targetPoint" />
          </mxGeometry>
        </mxCell>
        <mxCell id="rHEqyXFxwkV-T4YenSiY-189" value="" style="endArrow=diamondThin;endFill=0;endSize=24;html=1;rounded=0;" parent="WIyWlLk6GJQsqaUBKTNV-1" source="rHEqyXFxwkV-T4YenSiY-135" target="_vMdqk_4-bU8DDcagTp9-0" edge="1">
          <mxGeometry width="160" relative="1" as="geometry">
            <mxPoint x="-213" y="921" as="sourcePoint" />
            <mxPoint x="-133" y="852" as="targetPoint" />
            <Array as="points">
              <mxPoint x="-535" y="2043" />
            </Array>
          </mxGeometry>
        </mxCell>
        <mxCell id="rHEqyXFxwkV-T4YenSiY-190" value="" style="endArrow=diamondThin;endFill=0;endSize=24;html=1;rounded=0;" parent="WIyWlLk6GJQsqaUBKTNV-1" source="rHEqyXFxwkV-T4YenSiY-135" target="9BkR8ySJB5NAiUVgxbIN-112" edge="1">
          <mxGeometry width="160" relative="1" as="geometry">
            <mxPoint x="909" y="3035" as="sourcePoint" />
            <mxPoint x="-19" y="853" as="targetPoint" />
            <Array as="points">
              <mxPoint x="25" y="3280" />
            </Array>
          </mxGeometry>
        </mxCell>
      </root>
    </mxGraphModel>
  </diagram>
</mxfile>
